<?xml version="1.0" encoding="UTF-8"?>
<svg id="Layer_1" xmlns="http://www.w3.org/2000/svg" version="1.1" viewBox="0 0 493.82 792">
  <!-- Generator: Adobe Illustrator 29.4.0, SVG Export Plug-In . SVG Version: 2.1.0 Build 152)  -->
  <defs>
    <style>
      .st0 {
        fill: #fff;
      }

      .st1 {
        fill: #3f2a55;
      }
    </style>
  </defs>
  <path class="st0" d="M475.8,503.12c-.05-.09-.1-.17-.15-.25-.81-1.35-1.81-3.03-3.37-4.55-.47-.46-.95-.85-1.41-1.18-.16-.9-.42-1.94-.91-3.03-.9-2.01-2.26-3.29-3.13-4.04-.21-.38-.45-.82-.69-1.26-2.02-3.75-4.78-8.88-10.32-10.88-6.17-2.22-9.91-.09-11.97,2.12-8.08,2.4-8.61,8.88-8.5,11.33-.99,1.18-1.9,2.73-2.5,4.74-1.87-.02-3.74.04-5.01.22-3.23.45-5.54,2.01-6.97,3.03-1.51-1.09-3.5-2.06-6.07-2.43-4.1-.58-6.75.25-9,1.23-.06.03-.12.06-.19.08-4.96.81-8.86.85-12.42.11-1.32-.92-3.61-2.17-6.69-2.07-2.23.07-3.79.83-6.39,2.09-.59.29-1.52.74-2.06.97l-2.87.51-2.13,2.83c-.73.98-1.27,2-1.69,3-.53-.12-1.06-.24-1.59-.35-.95-.21-1.9-.42-2.89-.66-.12-.03-12.48-2.58-16.37-1.62-1.66.41-6.42,2.75-6.97,3.09-.86.53-2.63,2.11-4.27,3.77.07-.99,0-2.09-.3-3.27-.63-2.48-1.99-4.16-3.27-5.27-.13-.36-.29-.74-.48-1.13.56-2.09.53-4.29-.1-6.58-1.1-4.04-7.07-14.2-9.74-17.05-.24-.26-5.98-6.32-12.74-6.57-1.58-.06-2.98.19-4.19.6-1.09-.74-2.18-1.23-3.12-1.63-.08-.26-.17-.54-.27-.84.35-.65.67-1.38.95-2.19,2.67-7.78-.97-14.04-3.38-18.18-.69-1.18-1.34-2.3-1.63-3.08l-.68-1.78-1.34-1.35c-1.08-1.1-2.26-1.81-3.38-2.28-.5-1.86-1.13-3.82-2.23-5.54-1.09-1.71-2.54-2.98-3.81-4.09-.18-.16-.4-.35-.61-.54-.32-1.14-.92-2.8-2.21-4.43-.31-.4-.64-.75-.96-1.06.12-1.82.17-3.98-.5-6.26-.58-1.97-1.64-3.45-2.64-4.51.4-1.96.81-4.82-.14-8.17-.51-1.79-1.36-3.17-2.32-4.23.1-.51.18-1.05.21-1.62.23-3.95-1.19-9.15-8.95-12.08-.09-.15-.18-.31-.28-.46-1.55-2.41-8.36-8.57-13.93-9.09-3.02-.27-5.88.79-7.9,2.93l-2.68,2.84.2,3.08c-.41.34-.81.73-1.21,1.17-.99,1.11-1.8,2.46-2.74,4.02-.3.5-.73,1.21-1.09,1.77-.61.3-1.31.65-1.88.92-1.43.1-3.79.45-6.13,2.09-.74.52-1.36,1.09-1.88,1.68-.18-.21-.39-.44-.62-.69-1.27-1.39-2.77-2.47-4.37-3.28.13-.32.25-.65.36-1,2.16-7-.44-11.62-2.27-14.21.04-.07.07-.14.1-.22,3.15-.79,8.8-2.94,10.55-9.88l.97-3.86-2.2-3.32c-.15-.22-.26-.4-.34-.54.12-.56.32-1.35.44-1.79l.64-2.48-.76-2.45c-.85-2.72-2.55-4.43-4.22-5.52.21-.5.4-1.04.55-1.63.67-2.69.44-5.01-.19-6.94.65-.87,1.12-1.76,1.46-2.6l.21-.53.14-.55c.92-3.55-.07-7-.87-9.77-.04-.14-.08-.29-.13-.45.27-.55.62-1.2.87-1.66.81-1.5,1.65-3.05,2.12-4.79.54-2.03.43-3.77.22-5.02.15-.42.34-.9.54-1.4.75-1.86,2.08-5.15,1.77-9.05.98-1.13,1.83-2.59,2.31-4.48.49-1.95.33-3.67.09-4.88.14-.78.34-1.64.53-2.49.35-1.55.72-3.15.9-4.81.75-6.64-1.88-10.25-4.22-12.1-5.27-4.18-11.52-1.95-15.26-.62-.76.27-1.42.59-1.99.92-.26-.03-.54-.06-.84-.08-.88-3.48-3.47-6.09-5.07-7.43-2.62-2.19-5.34-3.26-8.1-3.21l-2.04-1.13c-4.43-2.46-6.17-3.95-6.84-4.68,0-.13,0-.26,0-.37.06-2.05.14-4.86-1.24-7.66-1.22-2.49-3.2-3.83-4.51-4.72-.02-.02-.05-.03-.07-.05-.61-.91-1.62-2.42-3.28-3.72-.65-.51-1.3-.91-1.9-1.23-.22-.55-.51-1.15-.89-1.75-1.38-2.21-3.13-3.93-4.53-5.31-.58-.57-1.37-1.35-1.61-1.68-.21-.29-.53-.93-.85-1.55-.81-1.6-1.93-3.8-3.88-5.93-1.17-1.28-2.45-2.29-3.57-3.18-.6-.47-1.49-1.18-1.77-1.49-.16-.31-.44-.97-.64-1.42-.9-2.08-2.01-4.66-4.14-6.81-3.47-3.5-8.19-4.63-11.98-5.54-.34-.08-.75-.18-1.14-.28-.44-1-.99-2.15-1.77-3.28-1.52-2.21-3.72-4.36-6.02-6.19.17-.84.22-1.63.21-2.31v-.49s-.06-.49-.06-.49c-.33-2.71-1.57-4.99-3.69-6.78-.05-.15-.11-.3-.17-.46,1.61-3.2,2.28-7.82-1.49-13.52.02-1.96-.15-5.79-3.55-9.61-.67-.75-1.09-1.34-1.63-2.1-.53-.74-1.13-1.59-1.95-2.56-.67-.79-1.38-1.41-2-1.88-.34-1.75-.89-4.23-2.5-6.65-1.27-1.91-3.03-3.35-4.9-4.88-.57-.47-1.42-1.16-1.76-1.5-.3-.43-.87-1.46-1.26-2.17-.61-1.11-1.3-2.37-2.1-3.53-.94-1.37-1.91-2.49-2.77-3.48-.06-.06-.11-.13-.17-.19V17.82H21.46l.04,9.04c.06,12.04.02,24.3-.01,36.15-.04,12.12-.07,24.66,0,37,.13,26.05.2,52.6.27,78.27.07,25.1.14,51.06.26,76.57.03,5.89.3,12.26.56,18.42.48,11.37.97,23.12.08,33.1-.07.3-.28.99-.43,1.45-.65,2.06-1.45,4.61-1.07,7.5.42,3.17,2.26,5.76,4.8,9.34.85,1.19,2.26,3.19,2.57,3.81.29.7.41,1.31.63,2.51.17.89.37,2,.71,3.26.2.73.45,1.38.71,1.95-1.19,1.38-3.22,3.86-3.21,7.57v2.15s1,1.91,1,1.91c1,1.94,2.2,3.46,3.16,4.67.5.63,1.11,1.41,1.28,1.76.95,2,1.32,3.39,1.76,5,1.08,3.99,2.24,7.47,6.39,12.91.2.3.69,1.12.99,1.62,1.24,2.08,1.99,3.33,3.39,4.49,2.36,1.96,5.01,2.44,6.77,2.76.02,0,.04,0,.07.01.2.18.43.38.62.56,1.47,1.33,3.49,3.15,6.2,4.4.66.31,1.29.53,1.87.7,1.32,2.81,3.18,7.09,3.57,8.16.07.19.13.36.17.51-1.11,1.36-2.74,3.39-3.99,6.5-.62,1.54-.94,2.91-1.2,4.01-.1.44-.24,1.03-.29,1.17-.57,1.17-1.57,2.66-2.63,4.23-2.39,3.54-5.37,7.95-6.39,13.31-.17.91-.35,1.86-.52,2.82-.82,4.53-1.76,9.67-3.46,13.08-.31.59-1.53,2.34-2.42,3.61-4.82,6.91-7.74,11.41-7,16.5.19,1.32.57,2.36.87,3.08-.45,3.39-4,10.8-6.13,12.67-.17.1-.34.18-.52.28-.97.52-2.44,1.29-3.88,2.54-5.39,4.68-7.76,13.01-9.67,19.71-.37,1.31-.72,2.55-1.03,3.51-.3.36-.93.97-1.37,1.39-1.92,1.85-4.82,4.64-5.5,8.98-.26,1.68-.05,3.14.16,4.15-.43,1.29-1.06,3.34-.99,5.98.06,2.35.69,4.2,1.07,5.3,0,.02.01.03.02.05-.29,1.73-.9,5.64,2.06,10.1.05.07,4.95,7.34,11.69,6.81l1.45-.11,1.42,1.35,2.8-.47c.19.23.38.45.58.66-1.6,1.53-2.3,3.3-2.6,4.54-1.15,4.72.56,8.21,1.73,10.11-.34,2.99-1.43,8.79-2.09,11.34-.81.75-1.99,1.92-2.95,3.64-2.31,4.16-1.47,8.65-.91,11.62.1.51.24,1.26.27,1.6l-.03,185.72h460.23v-272.53l-7.53.47Z"/>
  <path class="st1" d="M103.85,26.82v110.64c1.3,2.05,3.13,3.67,4.5,5.67,1.27,1.86,2.5,4.69,3.83,6.34s5.12,4.14,6.13,5.66c1.36,2.03,1.06,5.01,2.2,6.91.73,1.22,2.13,1.5,2.92,2.44,1.34,1.59,1.99,2.87,3.74,4.83,2.03,2.28.89,3.68,1.42,6.08.55,2.52,4.58,4.72,1.51,8.16-1.2,1.34-3.55.84-2.61,3.11.37.91,1.92,1.26,2.61,2.21.78,1.08.72,2.52,1.34,3.48.68,1.05,2.24,1.05,2.41,2.42.03,2.15-6.19,1.16-6.34,3.21s3.93,2.48,5.28,3.2c2.8,1.49,6.65,4.46,8.45,7.08,1.1,1.6,1.75,4.53,3.1,5.47,2.58,1.81,9.93,1.94,12.82,4.85,1.6,1.61,2.47,5.16,3.74,6.98,1.56,2.24,4.48,3.84,6.13,5.65,1.92,2.1,2.59,4.62,4.05,6.66s4.34,4.13,5.82,6.5c.59.94.33,2.41,1.35,3.47.87.9,2.41.96,3.53,1.83.96.75,1.5,2.08,2.37,2.99.78.81,2.66,1.74,2.97,2.38.67,1.36.09,4.22.39,6.04.73,4.45,7.7,8.52,11.39,10.57.95,1.87-.88,4.8-.22,5.83,1.53,2.39,4.99-3.47,6.71-3.57,1.32-.12,4.27,2.73,4.38,4,.1,1.14-2.3,2.19-1.26,4.45.48,1.05,4.26,3.11,5.41,3.23,1.76.17,2.52-.98,3.72-1.06s2.1.73,3.6.44c1.08-.21,1.98-1.4,3.07-1.79,4.17-1.49,8.21-2.91,7.51,3.23-.29,2.52-1.33,5.65-1.61,8.56-.07.73.53,1.53.3,2.43-.53,2.1-3.61,1.55-4.49,3.45,4.47,4.96.07,8.23-.59,13.46-.11.9.59,1.69.27,2.9-.5,1.86-3.34,5.63-3.52,8.33-.12,1.75,2.05,6.38,1.52,8.42-1.02,2.55-4.74.3-5.3,3.36-.2,2.4,4.62,3.52,3.66,7.33-.27,1.1-1.83,2.04-2.03,3.4-.11.73.4,4.49.66,5.19.78,2.2,4.69,1.87,5.18,3.43-1.1,4.26-1.4,5.77,1.12,9.56-1.03,4.1-5.83,3.04-7.79,4.51-1.33,1-2.55,5.6-4.31,6.98.38,5.58,5.75,6.15,3.84,12.37-.47,1.52-2.63,2.54-2.9,3.57-.3,1.14.57,2.33.47,3.59-.1,1.16-1.19,1.82-1.07,2.99,2.97.03,7.39.57,9.47,2.85s1.31,2.19,4.42,4.43c.48.35.66,1.28,1.11,1.56,1.6,1.01,5.66-.11,6.8-1.48.8-.96.78-3.34,1.98-4.18,1.12-.78,2.44-.29,3.55-.73.53-.21,4.78-2.31,5.02-2.48,1.43-1.03,3.73-5.75,4.82-6.96s2.69-1.1,3.83-2.09l-.31-4.83c.96-1.02,6.94,3.66,7.72,4.86.49.76.07,1.69,1.16,2.59,1.74,1.42,6.84,1.31,6.65,4.55-.1,1.66-2.08,2.93-1.63,5.39.39,2.15,3.51,1.49,4.07,3.44,1.03,3.61-1.67,6.28,0,9.67.53,1.08,2.47,1.93,2.8,3.08.66,2.26-.56,6.11.38,8.19.46,1,2.05,1.42,2.65,2.17.82,1.04.65,2.35,1.34,3.48,1,1.63,3.9,3.51,4.77,4.87,1.16,1.81,1.72,6.72,2.69,8.02s3.1.26,4.09,1.27c1.84,4.86,6.83,9.56,4.92,15.14-.84,2.44-2.2,2.13-2.81,3.09-1.14,1.79.89,2.64,1.46,3.91,1.04,2.34.85,4.23,3.13,5.98,1.19.91,3.7,1.49,4.55,2.41.96,1.04.57,2.8,1.64,3.18,3.23,1.15,4.01-2.7,6.84-2.59,2,.07,5.12,2.25,6.49,3.72,1.83,1.95,6.95,10.8,7.63,13.27.85,3.13-1.68,3.44-1.51,5.2.12,1.19,1.56,1.8,2.11,2.77s.43,2.12.89,2.86,2.04.94,2.31,2c.29,1.13-.92,2.36-.85,3.57.02.28.92,3.82,1.04,3.99.24.33,1.45.45,2,.94,1.03.91,2.24,2.54,3.28,3.16,2.38,1.41,4.56,1.27,6.2,4.54l2.37-.83c.41-1.9-2.15-3.22-.61-5.85.17-.29,4.23-4.34,4.56-4.54s4.2-1.97,4.44-2.03c.59-.15,10.92,1.34,12.07,1.62,2.08.51,4.02.89,6.06,1.39s1.9,1.91,4.71,1.69c3.48-.27,3-6.07,4.75-8.39,1.31-.23,5.87-2.79,6.54-2.81,1.14-.04,1.9,1.23,2.81,1.47,5.86,1.55,11.72,1.33,17.71.34,2.39-.4,2.86-1.72,6.23-1.24s3.76,3.41,4.93,3.63c1.58-.98,3.55-.73,5.02-1.24,2.01-.71,3.49-2.7,5.58-2.99,1.64-.23,5.8-.16,7.47.07,2.73.38,6.65,4.31,8.34.76-.34-1.45-4.11.54-3.75-5.35.34-5.43,3.71-4.22,4.22-6.02.51-1.42-.92-2.47-1.01-3.68-.2-2.86,3.24-2.17,4.82-3.19s.21-2.67,3.61-1.44c3.08,1.11,5.08,6.41,6.87,9.19.53.83,1.78,1.5,2.09,2.19.66,1.47.06,3.57,1.33,5.1.73.87,2.04,1.03,2.93,1.89,2.36,2.3,3.39,7.77,8.34,7.46v253.96H32.11l.03-176.56c.1-2.53-1.67-6.89-.5-9,.78-1.4,2.4-2.05,3.18-3.8,1-2.22,3.49-15.53,3.06-17.59s-2.7-3.26-2.04-5.93c.22-.89,2.82-.43,3.74-1.72.75-1.06.47-2.81.72-4.11s1.81-1.51.08-3.59c-2.12-2.56-6.16-2.76-5.05-8.07l-6.05,1-3.32-3.17-3.21,2.57c-.68.05-3.05-2.16-3.49-2.81-1.6-2.41-.33-3.45-.51-5.89-.13-1.67-1.09-3-1.14-4.83-.06-2.19,1.03-3.55,1.15-5.38.07-1.14-.54-2.36-.42-3.12.43-2.73,5.18-4.94,6.39-8.53,1.79-5.3,3.84-15.88,8.19-19.66,1.22-1.06,2.84-1.57,3.97-2.46,4.44-3.5,9.65-14.61,9.72-20.32.03-2.06-.84-2.68-1.01-3.87-.4-2.77,7-11.66,8.56-14.79,2.7-5.41,3.67-12.47,4.78-18.25,1.07-5.59,5.96-10.52,8.28-15.29.87-1.8.96-3.78,1.75-5.75,2.3-5.71,6.8-5.43,3.94-13.4-.62-1.74-4.99-11.75-5.76-12.45-1.53-1.4-2.8-.81-4.36-1.53-2.7-1.25-4.8-4.13-6.73-5.05-1.4-.67-3.97-.62-4.97-1.45-.4-.33-2.15-3.57-2.92-4.58-5.62-7.33-3.87-9.29-7.21-16.36-1.17-2.47-3.33-4.28-4.57-6.7,0-1.44,4.8-3.99,3.66-9-.22-.98-1.19-1.74-1.48-2.81-.66-2.47-.67-4.32-1.71-6.86-1.21-2.96-6.53-9.09-6.77-10.91-.22-1.65,1.33-4.68,1.52-6.82,1.48-16.24-.5-36.01-.58-52.5-.25-51.6-.27-103.31-.53-154.84-.12-24.38.14-48.78.02-73.15h73.35ZM166.76,727.61c-3.8.4-8.18-.29-12.05,0v5.89h89.14c1.01-.68.84-1.85.84-2.95,0-.69.03-1.38-.12-2.06l-.72-.89h-10.71c-2.39,0-9.9-3.09-12.01-4.59-5.35-3.81-5.89-8.85-6.48-14.95l.09-68.53c4.02-2.29,8.27-4.08,12.2-6.55,15.26-9.58,27.37-24.94,35.88-40.62l-5.26-2.96c-9.15,13.05-20.6,27.4-34.85,35.06-1.82.98-5.94,3.17-7.77,3.48-1.68.29-.27-1.13-.27-1.35v-77.15c0-2.99,2.11-9.63,4-12.07,2.53-3.26,9.32-6.95,13.4-6.95h11.78c1.01-.68.84-1.85.84-2.95,0-.69.03-1.38-.12-2.06l-.72-.89h-89.14v5.89h11.51c2.69,0,10.29,3.35,12.53,5.14,6.09,4.85,4.83,12.31,5.96,19.22l-.02,77.44c-25.51-.23-49.24-13.07-61.85-35.35-19.11-33.77-16.57-97.99,5.51-130.06,16.79-24.38,47.58-33.07,75.73-25.17,27.45,7.7,41.58,31.21,49.21,57.1l4.75.08-4.9-71.19h-5.21c-1.64,6.23-5.04,14.44-12.65,14.44-4.79,0-17.23-7.2-23.01-9.16-46.94-15.97-98.75,4.94-122.44,47.87-23.1,41.87-20.17,98.04,12.13,134.31,21.26,23.87,51.18,32.87,82.73,31.06-.76,18.62.99,38.01.02,56.55-.68,12.99-2.9,23.3-17.96,24.89Z"/>
  <path class="st0" d="M166.76,727.61c15.06-1.59,17.27-11.9,17.96-24.89.98-18.53-.78-37.93-.02-56.55-31.55,1.81-61.47-7.19-82.73-31.06-32.3-36.27-35.23-92.44-12.13-134.31,23.69-42.93,75.5-63.84,122.44-47.87,5.78,1.97,18.22,9.16,23.01,9.16,7.61,0,11.01-8.2,12.65-14.44h5.21s4.9,71.19,4.9,71.19l-4.75-.08c-7.64-25.89-21.77-49.4-49.21-57.1-28.15-7.9-58.94.79-75.73,25.17-22.08,32.06-24.62,96.29-5.51,130.06,12.61,22.28,36.34,35.12,61.85,35.35l.02-77.44c-1.13-6.91.13-14.37-5.96-19.22-2.24-1.79-9.84-5.14-12.53-5.14h-11.51v-5.89h89.14l.72.89c.15.68.12,1.37.12,2.06,0,1.1.18,2.27-.84,2.95h-11.78c-4.08,0-10.87,3.69-13.4,6.95-1.89,2.44-4,9.08-4,12.07v77.15c0,.22-1.41,1.63.27,1.35,1.83-.31,5.96-2.5,7.77-3.48,14.25-7.66,25.7-22.01,34.85-35.06l5.26,2.96c-8.51,15.68-20.62,31.04-35.88,40.62-3.93,2.47-8.18,4.25-12.2,6.55l-.09,68.53c.59,6.1,1.13,11.14,6.48,14.95,2.11,1.5,9.62,4.59,12.01,4.59h10.71l.72.89c.15.68.12,1.37.12,2.06,0,1.1.18,2.27-.84,2.95h-89.14v-5.89c3.87-.29,8.25.4,12.05,0Z"/>
</svg>