<svg width="155" height="144" viewBox="0 0 155 144" fill="none" xmlns="http://www.w3.org/2000/svg">
<g clip-path="url(#clip0)">
<path d="M77.6305 0.599976C48.2684 0.599976 21.2696 10.8409 0 27.8852V79.4479C0 79.4479 4.94142 89.5456 18.8347 88.9727C18.8347 88.9727 25.28 84.5326 36.0223 80.1641C33.7306 84.9623 30.866 92.5534 29.6486 103.081C29.6486 103.081 32.6564 99.8581 35.0197 97.7813C35.0197 97.7813 34.8764 106.16 38.1707 116.115L41.5366 112.606C41.5366 112.606 43.5418 124.565 55.5015 134.233C55.5015 134.233 55.5015 127.43 60.3713 122.775C60.3713 122.775 61.9469 129.793 62.1617 136.382C62.1617 136.382 67.6044 143.472 77.5589 143.472C87.5134 143.472 92.9561 136.382 92.9561 136.382C93.1709 129.793 94.7465 122.775 94.7465 122.775C99.6163 127.43 99.6163 134.233 99.6163 134.233C111.576 124.565 113.581 112.606 113.581 112.606L116.947 116.115C120.241 106.16 120.098 97.7813 120.098 97.7813C122.461 99.7865 125.469 103.081 125.469 103.081C124.252 92.6251 121.459 85.1055 119.167 80.3073C129.623 84.6758 135.925 88.9727 135.925 88.9727C149.818 89.6172 154.76 79.4479 154.76 79.4479V27.4555C133.49 10.6261 106.706 0.599976 77.6305 0.599976Z" fill="white"/>
<path d="M77.6305 2.96326C49.1278 2.96326 22.9884 12.7029 2.36333 29.0311V78.875C2.36333 78.875 6.44537 86.8243 18.1186 86.6094C18.1186 86.6094 27.0704 80.5221 41.2502 75.5091C39.5314 77.944 35.2345 84.9623 33.0145 96.4923L37.7411 92.4818C37.7411 92.4818 36.0223 101.505 39.245 111.603L43.0406 108.165C43.0406 108.165 44.0432 120.197 53.7828 129.363C53.7828 129.363 55.2867 123.133 61.8036 118.621C61.8036 118.621 64.4534 129.793 64.4534 135.451C64.4534 135.451 69.1084 141.108 77.6305 141.108C86.1527 141.108 90.8077 135.451 90.8077 135.451C90.8077 129.722 93.4574 118.621 93.4574 118.621C99.9744 123.133 101.478 129.363 101.478 129.363C111.218 120.197 112.22 108.165 112.22 108.165L116.016 111.603C119.239 101.505 117.52 92.4818 117.52 92.4818L122.247 96.4923C120.098 85.1771 115.944 78.2305 114.154 75.6523C128.119 80.5938 136.856 86.5378 136.856 86.5378C148.529 86.7526 152.611 78.8034 152.611 78.8034V28.6014C131.771 12.5596 105.847 2.96326 77.6305 2.96326Z" fill="black"/>
<path d="M100.69 94.4871C107.494 96.2775 112.937 100.359 112.937 100.359C112.722 91.4076 108.568 86.7527 108.568 86.7527C102.911 84.1029 97.0381 84.6758 97.0381 84.6758C102.123 82.4558 110.215 83.2435 110.215 83.2435C106.276 72.4297 97.5394 69.207 97.5394 69.207C98.9001 65.6979 102.051 63.5495 102.051 63.5495L103.842 69.1354C104.701 62.6901 106.778 57.5338 106.778 57.5338C106.778 57.5338 96.68 60.5416 86.0094 68.276L88.0146 62.0456C88.0146 62.0456 84.4339 60.1119 77.4156 60.1119C70.3974 60.1119 66.8166 62.0456 66.8166 62.0456L68.8218 68.276C58.1512 60.47 48.0535 57.5338 48.0535 57.5338C48.0535 57.5338 50.202 62.6901 50.9897 69.1354L52.7801 63.5495C52.7801 63.5495 55.9312 65.6979 57.2918 69.207C57.2918 69.207 48.5548 72.5013 44.616 83.2435C44.616 83.2435 52.7801 82.4558 57.7932 84.6758C57.7932 84.6758 51.9207 84.0313 46.2632 86.7527C46.2632 86.7527 42.1095 91.4076 41.8947 100.359C41.8947 100.359 47.409 96.2775 54.1408 94.4871C54.1408 94.4871 49.7007 97.4233 47.0509 104.227C47.0509 104.227 47.1225 110.242 51.4194 116.616C51.4194 116.616 53.5679 111.388 59.3687 108.166C59.3687 108.166 56.7189 104.513 57.2918 100.861C57.2918 100.861 55.8596 101.219 54.0692 102.15C54.0692 102.15 56.146 96.922 62.5197 94.3438C62.5197 94.3438 58.8674 97.9246 60.7294 102.293C60.7294 102.293 66.9599 107.235 76.3414 101.935C76.3414 101.935 71.6864 100.718 68.0341 96.7788C68.0341 96.7788 68.607 91.2644 70.3258 87.4688C70.3258 87.4688 69.2515 87.6121 67.6044 87.5404C67.7476 86.9675 67.6044 86.1798 67.2463 85.392C67.0315 84.8907 66.6734 84.461 66.3153 84.0313C65.7424 85.7501 65.5992 87.4688 65.5992 87.4688C64.7398 85.8933 64.4533 84.2462 64.4533 83.0287C64.2385 83.0287 64.0236 83.0287 63.8088 83.0287C62.663 83.3152 62.3765 84.7475 63.0927 86.323C63.1643 86.3946 63.1643 86.4662 63.2359 86.5378C61.0158 85.6784 58.7241 84.1029 56.8622 81.3099L60.6577 81.8112C60.6577 81.8112 60.5861 78.1589 54.6421 78.7318C54.6421 78.7318 59.2971 73.862 67.3179 81.3816C70.7554 84.5326 73.1187 84.7475 74.7659 83.9597C74.1213 85.0339 71.6864 89.1876 70.7554 95.9194C70.7554 95.9194 74.0497 95.06 77.344 95.06C80.6383 95.06 83.9326 95.9194 83.9326 95.9194C83.0016 89.1876 80.6383 84.9623 79.9221 83.9597C81.5693 84.7475 83.9326 84.6042 87.3701 81.3816C95.391 73.9336 100.046 78.7318 100.046 78.7318C94.1019 78.1589 94.0303 81.8112 94.0303 81.8112L97.8259 81.3099C95.9639 84.1029 93.6722 85.6784 91.4521 86.5378C91.5238 86.4662 91.5238 86.3946 91.5954 86.323C92.3831 84.7475 92.0251 83.3152 90.8792 83.0287C90.6644 82.9571 90.4495 82.9571 90.2347 83.0287C90.1631 84.2462 89.9482 85.9649 89.0888 87.4688C89.0888 87.4688 89.0172 85.7501 88.3727 84.0313C88.0146 84.3894 87.6565 84.8191 87.4417 85.392C87.0836 86.1798 86.9404 86.9675 87.0836 87.5404C85.4365 87.6837 84.3623 87.4688 84.3623 87.4688C86.081 91.2644 86.6539 96.7788 86.6539 96.7788C83.0732 100.789 78.3466 101.935 78.3466 101.935C87.7282 107.235 93.9587 102.293 93.9587 102.293C95.749 97.9246 92.1683 94.3438 92.1683 94.3438C98.6136 96.8504 100.619 102.15 100.619 102.15C98.7569 101.29 97.3962 100.861 97.3962 100.861C97.9691 104.513 95.3193 108.166 95.3193 108.166C101.12 111.388 103.269 116.616 103.269 116.616C107.565 110.242 107.637 104.227 107.637 104.227C105.131 97.4233 100.69 94.4871 100.69 94.4871Z" fill="#AB0033"/>
<path d="M57.4351 69.207C57.4351 69.207 48.6981 72.5013 44.7592 83.2435C44.7592 83.2435 52.9233 82.4557 57.9364 84.6758C54.2124 81.3099 49.9155 79.806 49.9155 79.806C51.7059 73.6471 57.4351 69.207 57.4351 69.207Z" fill="#8A2432"/>
<path d="M49.9155 99.142C48.9845 100.503 48.0535 102.15 47.2658 104.227C47.2658 104.227 47.3374 110.242 51.6343 116.616C51.6343 116.616 53.7827 111.388 59.5835 108.165C59.5835 108.165 58.8674 107.163 58.2229 105.731C54.5705 105.802 52.1356 106.948 52.1356 106.948C50.9897 104.585 50.2736 101.29 49.9155 99.142Z" fill="#8A2432"/>
<path d="M42.0379 100.359C42.0379 100.359 47.5522 96.2774 54.284 94.487C50.7749 93.9141 46.9077 94.0573 46.9077 94.0573C47.2657 90.5482 49.1993 86.8958 50.0587 85.3919C48.8413 85.6784 47.6238 86.1081 46.3348 86.681C46.4064 86.7526 42.2527 91.4076 42.0379 100.359Z" fill="#8A2432"/>
<path d="M97.6109 69.207C97.6109 69.207 106.348 72.5013 110.287 83.2435C110.287 83.2435 102.123 82.4557 97.1096 84.6758C100.834 81.3099 105.13 79.806 105.13 79.806C103.34 73.6471 97.6109 69.207 97.6109 69.207Z" fill="#8A2432"/>
<path d="M105.131 99.142C106.062 100.503 106.993 102.15 107.78 104.227C107.78 104.227 107.709 110.242 103.412 116.616C103.412 116.616 101.263 111.388 95.4625 108.165C95.4625 108.165 96.1787 107.163 96.8232 105.731C100.476 105.802 102.91 106.948 102.91 106.948C104.056 104.585 104.772 101.29 105.131 99.142Z" fill="#8A2432"/>
<path d="M113.008 100.359C113.008 100.359 107.494 96.2774 100.762 94.487C104.271 93.9141 108.138 94.0573 108.138 94.0573C107.78 90.5482 105.847 86.8958 104.987 85.3919C106.205 85.6784 107.422 86.1081 108.711 86.681C108.568 86.7526 112.722 91.4076 113.008 100.359Z" fill="#8A2432"/>
<path d="M70.9703 129.005L70.8987 128.934V128.791C70.8987 128.647 68.0341 116.831 66.0289 110.887C67.1747 118.693 67.9625 130.939 67.9625 131.082L68.0341 131.655L68.3922 132.085C68.3922 132.085 71.9013 135.451 77.5589 135.451C83.2164 135.451 86.7256 132.085 86.7256 132.085L87.0836 131.655L87.1552 131.082C87.1552 130.939 87.943 118.693 89.0889 110.887C87.0836 116.831 84.2907 128.647 84.219 128.791V128.934L84.1474 129.005C83.1448 129.793 80.9248 131.154 77.5589 131.154C74.193 131.154 71.9729 129.793 70.9703 129.005Z" fill="#AB0033"/>
<path d="M77.8454 115.971C77.8454 115.971 79.3493 112.892 82.3571 112.749C82.3571 112.749 81.3545 116.831 80.8532 121.987L77.8454 119.982L74.8375 121.987C74.3362 116.831 73.3336 112.749 73.3336 112.749C76.3415 112.964 77.8454 115.971 77.8454 115.971Z" fill="#8A2432"/>
<path d="M79.4209 119.194L77.8454 117.404L76.2698 119.194C75.4104 115.613 73.4052 112.82 73.4052 112.82C74.1214 116.186 74.9091 122.059 74.9091 122.059L77.917 120.054L80.9248 122.059C80.9248 122.059 81.7126 116.186 82.4287 112.82C82.3571 112.749 80.3519 115.613 79.4209 119.194Z" fill="#AB0033"/>
<path d="M85.9378 106.662C85.9378 106.662 80.6383 106.375 77.7737 105.372C74.9091 106.303 69.6096 106.59 69.6096 106.59C70.0393 109.956 72.1161 112.176 72.1161 112.176C72.0445 110.386 72.331 108.953 72.6174 107.807L73.9065 109.096L75.2672 107.736L76.5563 109.096L77.7737 107.879L78.9912 109.096L80.4235 107.593L81.8558 109.096L83.0732 107.879C83.3597 108.953 83.5745 110.386 83.5745 112.104C83.4313 112.248 85.5081 110.027 85.9378 106.662Z" fill="white"/>
<path d="M82.572 127.215C82.572 125.21 81.8558 123.778 81.8558 123.778C81.4977 125.067 81.068 125.998 80.5667 126.714L79.1344 125.711L77.5589 126.714L76.1266 125.711L74.5511 126.714C74.1214 125.998 73.6201 124.995 73.262 123.778C73.262 123.778 72.5459 125.21 72.5459 127.215C72.5459 127.215 74.4795 128.862 77.5589 128.862C80.3519 128.862 82.2855 127.43 82.572 127.215C82.572 127.215 82.572 127.287 82.572 127.215Z" fill="white"/>
<path d="M71.4 107.664L69.538 106.662C69.8961 109.383 71.3284 111.388 71.8297 112.033C71.9013 112.104 71.9729 112.176 72.0445 112.247C72.1161 112.247 70.9703 109.956 71.4 107.664Z" fill="#C1C5C8"/>
<path d="M85.9378 106.662C85.7946 106.733 84.0758 107.664 84.0758 107.664C84.5055 109.813 83.5029 111.961 83.4313 112.247C83.6461 111.961 85.5081 109.813 85.9378 106.662Z" fill="#C1C5C8"/>
<path d="M81.8558 123.778C81.8558 123.778 81.999 125.783 81.2829 126.857C81.2829 126.857 79.779 127.788 77.5589 127.788C75.3389 127.788 73.835 126.857 73.835 126.857C73.1904 125.783 73.262 123.778 73.262 123.778C73.262 123.778 72.5459 125.21 72.5459 127.215C72.5459 127.215 74.5511 128.862 77.5589 128.862C80.5667 128.862 82.572 127.215 82.572 127.215C82.572 125.21 81.8558 123.778 81.8558 123.778Z" fill="#C1C5C8"/>
<path d="M8.66537 32.0389C8.66537 32.0389 19.6941 23.9464 35.3777 17.5727C35.3777 17.5727 39.7462 17.7875 42.7541 22.2993V36.4074C42.7541 36.4074 36.81 38.1978 28.7892 41.8501V33.1847C28.7892 33.1847 25.7097 34.617 21.8425 36.6222V64.4804C21.8425 64.4804 25.0652 62.7617 28.7892 61.0429V52.3775C28.7892 52.3775 34.948 49.2981 42.7541 46.9348V60.8281C42.7541 60.8281 40.6772 65.7695 35.3777 70.8541C35.3777 70.8541 26.3542 74.0052 16.2566 80.3073C16.2566 80.3073 11.2435 80.3073 8.66537 76.7982V32.0389V32.0389Z" fill="white"/>
<path d="M35.6642 19.7211C23.06 24.8774 13.6068 31.1795 10.7422 33.1131V76.0104C12.3178 77.5859 14.6811 78.0156 15.7553 78.1588C24.5639 72.7161 32.3699 69.7083 34.3035 68.9921C38.1707 65.1965 40.176 61.4726 40.7489 60.3267V49.7994C36.3804 51.3033 32.728 52.8788 31.0093 53.6666V62.3319L29.7918 62.9049C26.2111 64.552 22.9884 66.2708 22.9884 66.2708L19.9089 67.9179V35.2615L21.0548 34.6886C24.922 32.6834 27.9298 31.2511 28.073 31.1795L31.0809 29.8188V38.5558C35.4494 36.6938 38.9585 35.4048 40.8205 34.8319V22.9438C38.8153 20.5805 36.5952 19.8644 35.6642 19.7211Z" fill="#AB0033"/>
<path d="M129.838 22.2993C129.838 22.2993 132.846 25.88 132.846 29.3892V64.5521C131.557 63.9075 128.692 62.4036 125.899 61.1145V20.3657C125.899 20.3657 119.74 17.2863 111.934 14.923V60.7565C111.934 60.7565 114.011 65.6979 119.31 70.7826C119.31 70.7826 128.334 73.9336 138.432 80.2357C138.432 80.2357 143.445 80.2357 146.023 76.7266V32.0389C146.023 32.0389 139.076 26.9543 129.838 22.2993Z" fill="white"/>
<path d="M134.922 67.9895L131.843 66.3424C130.697 65.7694 127.761 64.1939 124.968 62.9048L123.75 62.3319V21.7263C121.96 20.9386 118.379 19.363 114.011 17.8591V60.3267C114.584 61.4725 116.589 65.1965 120.456 68.9921C122.39 69.7082 130.124 72.7161 139.004 78.1588C140.079 78.0156 142.442 77.6575 144.017 76.0103V33.1131C142.514 32.0389 139.148 29.8188 134.779 27.3123C134.922 27.9568 134.994 28.673 134.994 29.3891V67.9895H134.922Z" fill="#AB0033"/>
<path d="M72.6174 54.526L76.1981 35.9777L79.7789 54.2395C87.5849 54.8125 92.7412 57.9635 92.7412 57.9635C95.749 56.8893 98.9001 55.6718 101.765 54.3828L105.918 19.8644C106.42 15.854 109.427 13.9204 109.427 13.9204C109.427 13.9204 101.192 11.4138 91.9534 10.1964L89.3753 33.5428L84.5771 9.48024C84.5771 9.48024 76.3414 8.83571 67.9624 9.62347L63.1642 33.7577L60.6577 10.4829C50.8465 12.0584 43.1121 14.6365 43.1121 14.6365C43.1121 14.6365 46.1199 16.4269 46.6212 21.0102L50.4884 53.2369C54.0692 54.8125 58.2228 56.6028 62.2333 57.9635C62.3049 57.9635 66.3153 55.457 72.6174 54.526Z" fill="white"/>
<path d="M70.3974 54.9557L76.1982 24.949L81.9274 54.4544C88.516 55.3854 92.7412 57.9635 92.7412 57.9635C94.9613 57.1757 97.3246 56.2447 99.5447 55.3854L103.842 19.6495C104.056 17.7876 104.773 16.212 105.489 15.0662C102.696 14.35 98.3988 13.3474 93.7438 12.6313L89.9483 47.2929L82.7868 11.4855C81.4977 11.4138 79.4925 11.3422 77.1292 11.3422C74.4794 11.3422 71.9729 11.4138 69.6812 11.6287L62.5197 47.5793L58.7242 12.9894C53.8543 13.8487 49.6291 14.923 46.9793 15.7107C47.7671 16.9282 48.4832 18.5753 48.7697 20.7238L52.7801 54.2395C55.7879 55.5286 59.0822 56.8893 62.3049 58.0351C62.3049 57.9635 65.3843 56.0299 70.3974 54.9557Z" fill="#AB0033"/>
<path d="M58.7242 12.9894C53.8544 13.8488 49.6291 14.923 46.9793 15.7107C47.7671 16.9282 48.4832 18.5753 48.7697 20.7238L49.4858 26.811C53.2098 28.3866 57.0054 29.9621 60.7294 31.6092L58.7242 12.9894Z" fill="#8A2432"/>
<path d="M82.7867 11.4855C81.4977 11.4138 79.4925 11.3422 77.1292 11.3422C74.4794 11.3422 71.9729 11.4138 69.6812 11.6287L65.3127 33.5428C68.1773 34.8319 70.9703 36.0493 73.8349 37.3384L76.2698 24.8774L79.1344 39.7733C82.5719 41.3488 86.0094 42.996 89.5185 44.7147L82.7867 11.4855Z" fill="#8A2432"/>
<path d="M105.489 15.0662C102.696 14.35 98.3988 13.3474 93.7439 12.6313L90.2348 45.1444C93.529 46.7916 96.8949 48.3671 100.189 50.0859L103.842 19.6495C104.056 17.7159 104.773 16.212 105.489 15.0662Z" fill="#8A2432"/>
<path d="M20.9116 34.7603C24.7788 32.7551 27.7866 31.3228 27.9298 31.2512L30.9376 29.8905V38.5559C35.3061 36.6939 38.8153 35.4048 40.6773 34.8319V22.9439C38.8153 20.5806 36.5236 19.8644 35.6642 19.7212C23.06 24.8775 13.6068 31.1796 10.7422 33.1132V52.7356C13.7501 53.7382 16.7579 54.8125 19.7657 55.8867V35.3332L20.9116 34.7603Z" fill="#8A2432"/>
<path d="M123.75 21.7264C121.96 20.9386 118.379 19.3631 114.011 17.8592V37.7681C117.233 40.4895 120.528 43.2825 123.75 46.0754V21.7264Z" fill="#8A2432"/>
<path d="M134.636 27.2407C134.779 27.8853 134.851 28.6014 134.851 29.3176V55.7434C137.859 58.3932 140.866 61.0429 143.874 63.7643V33.1131C142.442 32.0389 139.076 29.8189 134.636 27.2407Z" fill="#8A2432"/>
<path d="M112.793 126.714H111.934V129.077H111.146V126.714H110.287V126.069H112.793V126.714ZM117.09 129.077H116.303V126.714H116.231L115.515 128.361H114.942L114.226 126.714H114.082V129.077H113.295V126.069H114.584L115.157 127.502L115.801 126.069H117.09V129.077V129.077Z" fill="white"/>
</g>
<defs>
<clipPath id="clip0">
<rect width="154.688" height="142.8" fill="white" transform="translate(0 0.599976)"/>
</clipPath>
</defs>
</svg>
