<svg version="1.1" id="Layer_1" xmlns="http://www.w3.org/2000/svg" x="0" y="0" viewBox="0 0 200 200" xml:space="preserve"><style>.st0{fill:#fff}.st1{fill:#df1f26}</style><path class="st0" d="M91.177 181.845l-17.871-17.979v-25.211h28.555v15.347l5.776 5.728h28.199l4.977-5.2v-8.29h28.558v17.787l-17.538 17.818z"/><path class="st1" d="M100.232 140.284v14.397l6.735 6.677h29.565l5.911-6.175v-7.314h25.299v15.491l-16.592 16.856H91.855l-16.92-17.022v-22.909h25.297m3.258-3.259H71.677v27.511l.947.953 16.92 17.022.955.961h62.016l.957-.973 16.592-16.856.936-.951v-20.084H139.185v9.264l-4.044 4.225h-26.832l-4.818-4.777V137.026h-.001z"/><path class="st0" d="M29.996 138.645v-22.717h9.933V39.412h-9.933V18.463h49.122v20.949H63.862l1.818.823v75.693h43.727v-12.856h25.489v35.573z"/><path class="st1" d="M77.489 20.092v17.69H56.314l7.737 3.503v76.271h46.985V104.7h22.231v32.315H31.625v-19.459h9.933V37.783h-9.933v-17.69h45.864m3.258-3.259h-52.38V41.04H38.3v73.258h-9.932V140.273H136.526v-38.831h-28.747V114.298h-40.47V41.041H80.746V16.834h.001z"/><path class="st0" d="M73.306 115.926V78.351l17.871-17.98h60.242l17.539 17.816v17.287H140.4v-7.45l-4.977-5.202-35.403.016 1.836.831.005 1.193v31.064z"/><path class="st1" d="M150.737 62l16.592 16.854v14.991H142.03V87.37l-5.911-6.177-43.64.019 7.753 3.509.001.148v29.427H74.935V79.023L91.855 62h58.882m1.365-3.258H90.5l-.955.961-16.92 17.022-.947.953V117.554h31.813V84.851l-.001-.148-.001-.238 31.239-.014 4.044 4.226v8.426H170.587V77.519l-.936-.951-16.592-16.854-.957-.972z"/></svg>