<svg width="82" height="73" viewBox="0 0 82 73" fill="none" xmlns="http://www.w3.org/2000/svg">
<g clip-path="url(#clip0_4648_252308)">
<mask id="mask0_4648_252308" style="mask-type:luminance" maskUnits="userSpaceOnUse" x="0" y="0" width="82" height="73">
<path d="M81.9998 0H0.0375977V72.9627H81.9998V0Z" fill="white"/>
</mask>
<g mask="url(#mask0_4648_252308)">
<path d="M73.5885 40.8428L40.9997 72.9999L8.41016 40.8428H73.5885Z" fill="#003768"/>
</g>
<path d="M17.4151 26.9844C15.7543 27.7519 14.3001 28.8948 13.1703 30.3203C12.0405 31.7458 11.2669 33.4139 10.9123 35.1894C10.5576 36.9649 10.6318 38.7979 11.1289 40.5398C11.626 42.2817 12.532 43.8836 13.7734 45.2156C15.0148 46.5476 16.5568 47.5724 18.2744 48.2067C19.992 48.8411 21.8369 49.0673 23.6596 48.8669C25.4823 48.6666 27.2315 48.0453 28.7655 47.0535C30.2995 46.0618 31.5752 44.7273 32.4891 43.1584C30.7226 44.5053 28.5049 45.1425 26.2818 44.9421C24.0586 44.7417 21.9947 43.7185 20.5047 42.078C19.0147 40.4376 18.2092 38.3015 18.2499 36.099C18.2905 33.8965 19.1745 31.7908 20.724 30.2051L17.4151 26.9844Z" fill="#CDC1B4"/>
<path d="M22.3679 54.56C12.7888 54.56 4.99658 46.8703 4.99658 37.4181C4.99658 30.8019 8.92303 24.7085 14.9912 21.8957C16.0462 21.4063 17.228 21.2482 18.377 21.4427C19.526 21.6372 20.5869 22.175 21.4163 22.9833L24.7238 26.2033C25.7911 27.2423 26.4005 28.6544 26.4198 30.1337C26.439 31.613 25.8666 33.0402 24.8266 34.1058C24.2807 34.67 23.9706 35.4166 23.9579 36.1965C23.9453 36.9765 24.2312 37.7324 24.7585 38.3136C25.2858 38.8947 26.0158 39.2583 26.8028 39.3318C27.5898 39.4053 28.3759 39.1832 29.0043 38.71C30.0484 37.9144 31.3399 37.5009 32.6585 37.5401C33.9771 37.5794 35.241 38.0689 36.2347 38.9251C37.2283 39.7814 37.89 40.9513 38.1069 42.2353C38.3238 43.5193 38.0825 44.8378 37.4241 45.9658C35.897 48.574 33.7024 50.7407 31.0599 52.249C28.4175 53.7573 25.4199 54.5542 22.3672 54.56" fill="#003768"/>
<path d="M59.6306 48.9376C62.286 48.9373 64.862 48.0438 66.9336 46.4045C69.0052 44.7652 70.4487 42.4781 71.0258 39.9205C71.6029 37.3628 71.2793 34.6875 70.1082 32.3357C68.9372 29.984 66.9888 28.0964 64.5843 26.9844L61.2761 30.2058C62.8218 31.7921 63.7024 33.8964 63.7415 36.0967C63.7807 38.2969 62.9753 40.4304 61.487 42.0692C59.9987 43.7081 57.9375 44.7311 55.7167 44.9331C53.496 45.1351 51.28 44.5011 49.5132 43.1584C50.5356 44.9146 52.0096 46.3735 53.7863 47.3877C55.563 48.4019 57.5794 48.9356 59.632 48.9348" fill="#CDC1B4"/>
<path d="M59.6306 54.56C56.578 54.5542 53.5805 53.7573 50.9382 52.249C48.2958 50.7407 46.1014 48.574 44.5744 45.9658C43.9157 44.8377 43.6741 43.519 43.891 42.2348C44.1078 40.9505 44.7696 39.7804 45.7635 38.924C46.7573 38.0676 48.0215 37.5782 49.3403 37.5391C50.6592 37.5001 51.9509 37.914 52.9949 38.71C53.5424 39.1295 54.2164 39.3562 54.9096 39.3539C55.5255 39.3536 56.1277 39.1746 56.6413 38.8392C57.155 38.5038 57.5573 38.0268 57.7984 37.4676C58.0395 36.9083 58.1086 36.2915 57.9973 35.6938C57.8859 35.096 57.5989 34.5438 57.1719 34.1058C56.1318 33.0403 55.5593 31.6132 55.5784 30.1339C55.5975 28.6546 56.2067 27.2424 57.274 26.2033L60.5829 22.9833C61.4124 22.175 62.4732 21.6372 63.6222 21.4427C64.7712 21.2482 65.953 21.4063 67.008 21.8957C73.0819 24.7092 77.0062 30.8019 77.0062 37.4181C77.0062 46.8703 69.2126 54.56 59.6335 54.56" fill="#003768"/>
<path d="M28.7674 38.0017C28.7676 37.8707 28.7283 37.7426 28.6546 37.6336C28.5809 37.5246 28.4761 37.4396 28.3535 37.3894C28.2308 37.3392 28.0959 37.326 27.9656 37.3516C27.8354 37.3771 27.7157 37.4402 27.6218 37.5328C27.5279 37.6255 27.464 37.7435 27.4382 37.872C27.4123 38.0006 27.4256 38.1338 27.4765 38.2548C27.5274 38.3758 27.6135 38.4792 27.724 38.5519C27.8344 38.6246 27.9643 38.6634 28.0971 38.6632C28.2747 38.6628 28.445 38.593 28.5707 38.4691C28.6963 38.3451 28.767 38.1771 28.7674 38.0017Z" fill="white"/>
<path d="M28.0965 44.2855C26.8368 44.2856 25.6054 43.9171 24.5579 43.2267C23.5105 42.5362 22.6941 41.5547 22.212 40.4064C21.7299 39.258 21.6037 37.9944 21.8494 36.7753C22.0951 35.5562 22.7017 34.4364 23.5924 33.5574C24.4831 32.6785 25.618 32.08 26.8535 31.8375C28.0889 31.5951 29.3695 31.7196 30.5333 32.1953C31.697 32.671 32.6917 33.4766 33.3914 34.5102C34.0912 35.5437 34.4646 36.7589 34.4645 38.0018C34.4626 39.6678 33.7911 41.265 32.5972 42.443C31.4034 43.621 29.7848 44.2836 28.0965 44.2855ZM28.0965 33.0412C27.1021 33.041 26.1301 33.3318 25.3033 33.8768C24.4764 34.4218 23.832 35.1965 23.4514 36.103C23.0707 37.0094 22.9711 38.0069 23.165 38.9692C23.3589 39.9315 23.8376 40.8155 24.5407 41.5093C25.2437 42.2032 26.1395 42.6757 27.1147 42.8672C28.0899 43.0586 29.1008 42.9604 30.0195 42.585C30.9381 42.2095 31.7233 41.5737 32.2757 40.7579C32.8282 39.9421 33.123 38.983 33.123 38.0018C33.1215 36.6868 32.5915 35.426 31.6492 34.496C30.7069 33.566 29.4292 33.0428 28.0965 33.0412Z" fill="#003768"/>
<path d="M41 43.7256V57.7433L43.5251 47.4627L41 43.7256Z" fill="white"/>
<path d="M41.0049 63.3653C40.7773 63.3655 40.5498 63.3521 40.3238 63.3251C38.9397 63.1621 37.6641 62.5039 36.7387 61.4752C35.8133 60.4465 35.3022 59.1187 35.3022 57.7431V43.7247C35.3022 42.5181 35.6956 41.3436 36.4243 40.3746C37.1529 39.4056 38.1781 38.6936 39.3484 38.3439C40.5187 37.9942 41.772 38.0252 42.923 38.4325C44.0741 38.8397 45.0618 39.6016 45.7402 40.6055L48.266 44.3432C48.7024 44.9895 48.9986 45.718 49.1358 46.4827C49.2731 47.2475 49.2484 48.032 49.0634 48.7868L46.5369 59.0668C46.2361 60.2911 45.5273 61.3803 44.5241 62.1595C43.5209 62.9387 42.2816 63.3629 41.0049 63.3639" fill="#003768"/>
<path d="M71.3073 27.0141C73.3804 29.6399 74.5042 32.8743 74.4998 36.2029C74.4998 44.4808 67.6992 51.1913 59.3116 51.1913C56.1705 51.1936 53.1067 50.2298 50.5463 48.4341C46.8184 45.269 46.7791 42.5421 46.7791 42.5421L56.1526 33.4457L56.0484 31.3859C56.0484 31.3859 58.3229 25.086 59.8413 25.086C61.3598 25.086 62.3457 26.988 62.3457 26.988L66.7083 22.853C66.7083 22.853 65.8345 22.984 65.8345 22.1999C65.8345 21.4159 70.0108 18.9306 70.0108 18.0332C70.0108 17.1357 68.7479 17.8507 68.7479 17.2519C68.7479 16.6532 72.5516 14.971 72.5516 14.3285C72.5516 13.6861 70.9718 14.0686 70.9718 13.3937C70.9718 12.7189 74.4998 11.248 74.4998 10.3252C74.4998 9.40234 72.7643 10.4498 72.7643 9.54675C72.7643 9.13254 73.2534 8.51615 73.7838 7.88356C74.4106 7.13544 75.0952 6.36408 75.0952 5.87871C75.0952 5.25951 72.4474 5.76811 69.7688 7.32493C69.4711 7.49823 69.1734 7.6842 68.8786 7.88356C67.9656 8.49045 67.1344 9.20934 66.4049 10.0229C66.1194 10.3428 65.8467 10.6964 65.5761 11.0719C62.824 14.9026 60.7337 21.1961 60.0319 21.1961C59.2617 21.1961 58.1972 18.9644 57.2592 18.9644C56.3211 18.9644 56.8208 26.2498 55.9427 26.2498C55.0646 26.2498 54.6784 24.5725 53.7868 24.5725C52.8951 24.5725 53.3127 31.7332 52.3661 32.8222C51.4194 33.9113 47.7893 37.4955 46.3693 39.053C44.9494 40.6106 42.5856 42.0117 42.5856 42.0117L45.8996 46.5279L41.0072 62.2116L36.1149 46.5279L39.4281 42.0117C39.4281 42.0117 37.0608 40.6099 35.6408 39.053C34.2209 37.4962 30.5907 33.9106 29.6441 32.8222C28.6974 31.7339 29.1151 24.5725 28.2234 24.5725C27.3317 24.5725 26.9462 26.2498 26.0674 26.2498C25.1886 26.2498 25.6869 18.9644 24.751 18.9644C23.8151 18.9644 22.7521 21.1961 21.9789 21.1961C21.255 21.1961 19.0584 14.5166 16.1835 10.7323C15.9936 10.4822 15.8008 10.2448 15.6052 10.0229C14.8707 9.20782 14.0333 8.48884 13.1137 7.88356C12.9609 7.78141 12.8103 7.67575 12.6575 7.57994C9.84476 5.82799 6.91492 5.22781 6.91492 5.87871C6.91492 6.36408 7.59955 7.13544 8.22636 7.88356C8.75678 8.51755 9.24651 9.13254 9.24651 9.54675C9.24651 10.4498 7.51103 9.40163 7.51103 10.3252C7.51103 11.2487 11.037 12.7153 11.037 13.3902C11.037 14.065 9.45783 13.6811 9.45783 14.325C9.45783 14.9688 13.2608 16.6496 13.2608 17.2484C13.2608 17.8472 11.9979 17.1343 11.9979 18.0296C11.9979 18.925 16.1742 21.411 16.1742 22.1964C16.1742 22.9819 15.3004 22.8494 15.3004 22.8494L19.6637 26.9845C19.6637 26.9845 20.6496 25.0825 22.1674 25.0825C23.6851 25.0825 25.9603 31.3824 25.9603 31.3824L25.8554 33.4421L35.2318 42.5386C35.2318 42.5386 35.1918 45.2662 31.4624 48.432C28.9025 50.2267 25.8395 51.19 22.6993 51.1878C14.3109 51.1878 7.51031 44.4772 7.51031 36.1993C7.50483 32.871 8.62761 29.6366 10.7 27.0106C9.23455 28.383 8.04378 30.0152 7.18977 31.8219C5.62633 35.1354 5.28567 38.8838 6.22672 42.4189C8.04431 49.2379 14.4116 54.2732 21.9889 54.2732C24.3225 54.2735 26.6294 53.7824 28.7553 52.8326H28.7753C28.7753 52.8326 28.9459 54.7121 29.5034 55.263C30.061 55.8138 30.9262 54.0654 31.538 54.6712C32.1499 55.2771 32.1998 57.713 32.7824 58.2885C33.3649 58.8641 34.5721 56.7522 35.2368 57.4073C35.9014 58.0624 35.3995 60.8386 36.1113 61.5417C36.8231 62.2447 36.8459 60.447 37.4813 61.0739C38.1166 61.7009 41.0079 66.4594 41.0079 66.4594C41.0079 66.4594 43.8971 61.703 44.5339 61.0739C45.1707 60.4448 45.1907 62.2454 45.9031 61.5417C46.6156 60.8379 46.1173 58.0624 46.7791 57.4073C47.4409 56.7522 48.6488 58.8648 49.2328 58.2885C49.8168 57.7123 49.866 55.2749 50.4771 54.6712C51.0882 54.0675 51.9527 55.8131 52.5117 55.263C53.0707 54.7128 53.2392 52.8326 53.2392 52.8326H53.2599C55.386 53.7824 57.6931 54.2736 60.0269 54.2732C67.6921 54.2732 74.1172 49.1188 75.8477 42.1772C76.6869 38.8229 76.3785 35.2889 74.9703 32.1255C74.1079 30.1981 72.8654 28.4594 71.3151 27.0106" fill="white"/>
<mask id="mask1_4648_252308" style="mask-type:luminance" maskUnits="userSpaceOnUse" x="0" y="0" width="82" height="73">
<path d="M81.9998 0H0.0375977V72.9627H81.9998V0Z" fill="white"/>
</mask>
<g mask="url(#mask1_4648_252308)">
<path d="M25.8231 59.5693C24.5547 59.7893 23.2693 59.8996 21.9816 59.899C11.9748 59.899 3.2267 53.3005 0.707343 43.8525C-0.274508 40.1499 -0.229906 36.2549 0.836484 32.5752C1.90287 28.8954 3.95186 25.5661 6.76907 22.9355C7.10238 22.6227 7.47299 22.3512 7.87276 22.1268C7.19598 21.3216 1.20779 7.04745 1.20779 5.87878C1.20779 2.99057 3.54581 0.000911901 7.45799 0.000911901C10.1844 0.000911901 13.4976 1.46052 15.69 2.82643C15.8634 2.93492 16.0334 3.04833 16.2018 3.16245L16.3046 3.2329C17.6309 4.11018 18.8375 5.15188 19.8948 6.33244C20.1754 6.65085 20.4567 6.99603 20.7337 7.35952C22.1129 9.17628 23.2894 11.3692 24.2596 13.36C24.4167 13.3482 24.5773 13.3424 24.7415 13.3424C25.6225 13.3424 30.0594 13.6326 30.8668 19.3618C30.8775 19.4379 30.8882 19.5147 30.8982 19.5929C32.3324 20.3051 33.8659 21.7978 34.3206 24.9171C34.4534 25.8328 34.5205 26.8627 34.5919 27.9553C34.6297 28.5351 34.684 29.3741 34.7482 30.0045C35.3065 30.5857 36.0383 31.3303 36.6758 31.977C37.8744 33.1985 39.1137 34.4623 39.869 35.2879C40.136 35.5809 40.5587 35.9331 41.0006 36.2656C41.4425 35.9338 41.8644 35.5816 42.1314 35.2879C42.8881 34.4587 44.1303 33.1943 45.3297 31.9699C45.9643 31.324 46.6932 30.5808 47.2508 29.9975C47.315 29.3635 47.37 28.5273 47.4071 27.9476C47.4785 26.855 47.5456 25.823 47.6784 24.91C48.1332 21.7907 49.6666 20.298 51.1008 19.5858C51.1116 19.5076 51.1215 19.4309 51.1323 19.3548C51.939 13.6255 56.3766 13.3353 57.2575 13.3353C57.4227 13.3353 57.5835 13.3412 57.7401 13.3529C58.6289 11.5284 59.6948 9.52639 60.9263 7.81388C61.3168 7.27146 61.7115 6.77201 62.1006 6.32962C63.1491 5.15231 64.3457 4.1121 65.6615 3.2343C66.0528 2.97014 66.4611 2.71442 66.8752 2.4735C69.5473 0.92373 72.4115 -0.00683594 74.5382 -0.00683594C78.4518 -0.00683594 80.7905 2.98211 80.7905 5.87174C80.7905 7.04041 74.803 21.3145 74.1263 22.1197C74.5256 22.3442 74.8959 22.6155 75.2292 22.9277C77.3307 24.8885 79.0134 27.2443 80.178 29.8566C81.3853 32.556 82.0061 35.4749 82.0006 38.4254C81.9996 40.1416 81.7891 41.8514 81.3738 43.5179C78.9687 53.1589 70.1877 59.8919 60.0196 59.8919C58.7313 59.8926 57.4455 59.7823 56.1767 59.5623C55.6641 59.9934 26.3356 59.9934 25.8238 59.5623M54.0557 43.9877C55.6094 45.0161 57.4384 45.5642 59.3093 45.5622C64.5429 45.5622 68.8006 41.3602 68.8006 36.1931C68.8081 34.135 68.1209 32.1331 66.8473 30.5033L66.2919 31.0302C65.7017 31.5899 64.9961 32.0174 64.2233 32.2836C63.4505 32.5498 62.6286 32.6485 61.8136 32.5729L61.8422 33.1548C61.8828 33.9475 61.7526 34.7397 61.4604 35.4792C61.1681 36.2186 60.7204 36.8886 60.1467 37.4449L53.7216 43.6764C53.8265 43.7863 53.9393 43.8891 54.055 43.9948L54.0557 43.9877ZM15.1531 30.5124C13.8797 32.1426 13.1925 34.1447 13.1999 36.2029C13.1999 41.3672 17.4583 45.572 22.6948 45.572C24.5647 45.574 26.3929 45.0264 27.9462 43.999C28.0647 43.8924 28.1756 43.7891 28.2789 43.689L21.8538 37.4575C21.2799 36.9013 20.832 36.2314 20.5396 35.4919C20.2472 34.7525 20.117 33.9602 20.1576 33.1675L20.1868 32.5856C19.372 32.6613 18.5501 32.5627 17.7774 32.2965C17.0047 32.0302 16.2992 31.6027 15.7092 31.0429L15.1531 30.5124Z" fill="#003768"/>
</g>
<path d="M22.1475 36.352C22.1465 35.0726 22.6108 33.8353 23.456 32.8651L22.7 32.1289C21.5916 33.3409 20.9997 34.9282 21.0476 36.56C21.0955 38.1919 21.7796 39.7427 22.9573 40.8893C24.135 42.036 25.7155 42.6902 27.3698 42.7156C29.0241 42.7411 30.6246 42.1359 31.8379 41.026L31.1704 40.3758C30.3862 41.0588 29.4188 41.5038 28.3845 41.6575C27.3501 41.8111 26.2928 41.6668 25.3396 41.2418C24.3864 40.8169 23.5777 40.1295 23.0108 39.2621C22.4439 38.3946 22.1429 37.3842 22.1439 36.352" fill="white"/>
<path d="M27.4752 48.3391C20.7895 48.3391 15.3496 42.9719 15.3496 36.3748C15.348 33.4162 16.4589 30.5622 18.4672 28.3653C18.9828 27.801 19.6088 27.3457 20.3076 27.0268C21.0064 26.7079 21.7635 26.532 22.5331 26.5097C23.3027 26.4875 24.0688 26.6193 24.7854 26.8973C25.5019 27.1753 26.1539 27.5937 26.7021 28.1272L27.4574 28.8626C28.3138 29.6966 28.8808 30.7766 29.0773 31.9479C29.2737 33.1193 29.0895 34.3219 28.5511 35.3837C29.62 34.8376 30.8367 34.6395 32.0268 34.8177C33.2169 34.9958 34.3193 35.5412 35.176 36.3755L35.8443 37.0257C36.392 37.5591 36.8245 38.1964 37.1158 38.8993C37.4071 39.6021 37.551 40.3559 37.5389 41.1151C37.5268 41.8744 37.359 42.6233 37.0455 43.3168C36.7321 44.0103 36.2795 44.6339 35.715 45.1501C33.476 47.203 30.5317 48.3425 27.4752 48.3391Z" fill="#003768"/>
<path d="M54.5726 38.0017C54.5727 37.8708 54.5335 37.7427 54.4599 37.6337C54.3862 37.5247 54.2814 37.4397 54.1588 37.3895C54.0362 37.3393 53.9013 37.326 53.7711 37.3515C53.6408 37.377 53.5212 37.44 53.4273 37.5326C53.3333 37.6251 53.2694 37.7431 53.2434 37.8716C53.2175 38.0001 53.2307 38.1332 53.2815 38.2543C53.3323 38.3753 53.4183 38.4788 53.5286 38.5516C53.639 38.6244 53.7688 38.6632 53.9015 38.6632C54.0793 38.6628 54.2496 38.5931 54.3754 38.4691C54.5011 38.3452 54.572 38.1771 54.5726 38.0017Z" fill="white"/>
<path d="M53.9024 44.2855C52.6428 44.2855 51.4114 43.9169 50.3641 43.2263C49.3167 42.5358 48.5004 41.5542 48.0184 40.4059C47.5364 39.2575 47.4103 37.9939 47.6561 36.7749C47.9019 35.5558 48.5085 34.436 49.3993 33.5572C50.2901 32.6783 51.4249 32.0799 52.6604 31.8375C53.8958 31.5951 55.1764 31.7196 56.3401 32.1954C57.5038 32.6711 58.4984 33.4767 59.1981 34.5103C59.8978 35.5438 60.2712 36.7589 60.2711 38.0018C60.2692 39.6679 59.5976 41.2652 58.4036 42.4432C57.2097 43.6212 55.5908 44.2838 53.9024 44.2855ZM53.9024 33.0412C52.9081 33.041 51.936 33.3318 51.1092 33.8768C50.2824 34.4218 49.6379 35.1965 49.2573 36.103C48.8767 37.0094 48.777 38.0069 48.9709 38.9692C49.1648 39.9315 49.6436 40.8155 50.3466 41.5093C51.0497 42.2032 51.9454 42.6757 52.9206 42.8672C53.8959 43.0586 54.9067 42.9604 55.8254 42.585C56.744 42.2095 57.5292 41.5737 58.0817 40.7579C58.6341 39.9421 58.929 38.983 58.929 38.0018C58.9274 36.6868 58.3974 35.426 57.4551 34.496C56.5128 33.566 55.2351 33.0428 53.9024 33.0412Z" fill="#003768"/>
<path d="M54.4135 41.717C53.0919 41.7184 51.8155 41.2423 50.8254 40.3786L50.1558 41.0246C51.3691 42.1344 52.9696 42.7396 54.6239 42.7142C56.2782 42.6887 57.8587 42.0345 59.0364 40.8879C60.2141 39.7412 60.8982 38.1905 60.9461 36.5586C60.994 34.9267 60.4021 33.3395 59.2937 32.1274L58.5377 32.8636C59.2145 33.6423 59.6508 34.5963 59.7946 35.6124C59.9384 36.6285 59.7838 37.6639 59.3491 38.5959C58.9144 39.5278 58.2178 40.3171 57.3421 40.8701C56.4663 41.4231 55.4482 41.7165 54.4085 41.7156" fill="white"/>
<path d="M54.524 48.339C51.4673 48.3427 48.5229 47.2029 46.2841 45.1493C45.72 44.633 45.2678 44.0094 44.9545 43.3159C44.6413 42.6225 44.4736 41.8737 44.4616 41.1146C44.4496 40.3555 44.5935 39.6018 44.8847 38.8991C45.1758 38.1964 45.6081 37.5591 46.1556 37.0257L46.8231 36.3755C47.6799 35.5412 48.7823 34.9959 49.9724 34.8178C51.1624 34.6396 52.3791 34.8377 53.4481 35.3836C52.9096 34.3222 52.7252 33.1199 52.9214 31.9488C53.1176 30.7777 53.6843 29.6979 54.5404 28.864L55.2964 28.1278C55.8445 27.5942 56.4964 27.1757 57.2129 26.8976C57.9294 26.6195 58.6956 26.4875 59.4652 26.5097C60.2349 26.5319 60.9919 26.7078 61.6908 27.0267C62.3896 27.3456 63.0157 27.8009 63.5313 28.3652C65.5392 30.5625 66.6494 33.4168 66.6467 36.3755C66.6467 42.9726 61.2075 48.3397 54.5218 48.3397" fill="#003768"/>
<path d="M23.4559 32.8652C22.559 33.8954 22.0919 35.223 22.1487 36.5799C22.2055 37.9367 22.7821 39.2218 23.762 40.1754C24.7419 41.129 26.0521 41.6801 27.4279 41.7173C28.8036 41.7545 30.1424 41.2752 31.1739 40.376L30.1894 39.418C29.4331 39.8326 28.5611 39.9943 27.7039 39.8789C26.8468 39.7634 26.0505 39.3771 25.4346 38.7777C24.8186 38.1782 24.416 37.398 24.2871 36.5539C24.1581 35.7097 24.3099 34.8471 24.7195 34.0952L23.4559 32.8652Z" fill="#FDB515"/>
<path d="M27.5856 47.3398C21.446 47.3398 16.4487 42.4087 16.4487 36.3505C16.4503 33.7303 17.4002 31.1969 19.1273 29.2067C19.6359 28.6206 20.2614 28.144 20.9647 27.8067C21.6681 27.4694 22.4343 27.2786 23.2156 27.2462C23.9969 27.2137 24.7766 27.3403 25.5062 27.6181C26.2358 27.8959 26.8996 28.3189 27.4564 28.8608L28.72 30.0908C29.732 31.0753 30.3343 32.3978 30.4083 33.7983C31.8284 33.8522 33.1767 34.4281 34.1884 35.4128L35.1729 36.3702C35.7298 36.9119 36.1678 37.561 36.4595 38.277C36.7512 38.993 36.8904 39.7605 36.8684 40.5319C36.8464 41.3033 36.6638 42.0619 36.3318 42.7606C35.9998 43.4593 35.5256 44.0831 34.9388 44.5931C32.9086 46.362 30.2939 47.3389 27.5856 47.3405M27.577 36.3512L27.7833 36.5252C27.8218 36.4766 27.8433 36.417 27.8447 36.3554C27.8447 36.1631 27.592 36.0032 27.4071 36.1603L27.577 36.3512Z" fill="#003768"/>
<path d="M50.8252 40.3765C51.8568 41.2745 53.1952 41.7529 54.5703 41.7152C55.9454 41.6774 57.2549 41.1263 58.2343 40.1731C59.2137 39.2199 59.7902 37.9356 59.8474 36.5793C59.9046 35.2231 59.4382 33.8959 58.5425 32.8657L57.2796 34.095C57.6901 34.8469 57.8425 35.7099 57.7139 36.5545C57.5854 37.3991 57.1828 38.1798 56.5665 38.7795C55.9503 39.3793 55.1536 39.7657 54.296 39.8809C53.4383 39.9961 52.5659 39.8338 51.8097 39.4184L50.8252 40.3765Z" fill="#FDB515"/>
<path d="M54.4135 47.3402C51.7052 47.3385 49.0906 46.3616 47.0603 44.5929C46.4738 44.0828 45.9999 43.459 45.6682 42.7604C45.3365 42.0618 45.154 41.3034 45.1321 40.5322C45.1102 39.761 45.2494 38.9936 45.541 38.2778C45.8325 37.562 46.2702 36.913 46.8269 36.3713L47.8106 35.414C48.8232 34.4282 50.1729 33.852 51.5943 33.7987C51.6681 32.3985 52.2701 31.0763 53.282 30.0919L54.5448 28.862C55.1015 28.3199 55.7653 27.8968 56.4948 27.6189C57.2244 27.341 58.0041 27.2143 58.7855 27.2467C59.5668 27.279 60.3331 27.4698 61.0364 27.8071C61.7398 28.1444 62.3653 28.621 62.8739 29.2071C64.6016 31.197 65.5518 33.7306 65.5532 36.3509C65.5532 42.4091 60.5559 47.3402 54.4163 47.3402M54.4163 36.0952C54.3822 36.0953 54.3485 36.102 54.317 36.115C54.2855 36.1279 54.2569 36.1469 54.2328 36.1708C54.2087 36.1947 54.1897 36.223 54.1767 36.2541C54.1637 36.2853 54.1571 36.3186 54.1572 36.3523C54.1585 36.4138 54.1798 36.4733 54.2179 36.5221L54.432 36.3431L54.597 36.1579C54.5446 36.1171 54.4801 36.0946 54.4135 36.0938L54.4163 36.0952Z" fill="#003768"/>
<path d="M17.4151 26.9844C15.7543 27.7519 14.3001 28.8948 13.1703 30.3203C12.0405 31.7458 11.2669 33.4139 10.9123 35.1894C10.5576 36.9649 10.6318 38.7979 11.1289 40.5398C11.626 42.2817 12.532 43.8836 13.7734 45.2156C15.0148 46.5476 16.5568 47.5724 18.2744 48.2067C19.992 48.8411 21.8369 49.0673 23.6596 48.8669C25.4823 48.6666 27.2315 48.0453 28.7655 47.0535C30.2995 46.0618 31.5752 44.7273 32.4891 43.1584C30.7226 44.5053 28.5049 45.1425 26.2818 44.9421C24.0586 44.7417 21.9947 43.7185 20.5047 42.078C19.0147 40.4376 18.2092 38.3015 18.2499 36.099C18.2905 33.8965 19.1745 31.7908 20.724 30.2051L17.4151 26.9844Z" fill="#CDC1B4"/>
<path d="M59.6306 48.9376C62.286 48.9373 64.862 48.0438 66.9336 46.4045C69.0052 44.7652 70.4487 42.4781 71.0258 39.9205C71.6029 37.3628 71.2793 34.6875 70.1082 32.3357C68.9372 29.984 66.9888 28.0964 64.5843 26.9844L61.2761 30.2058C62.8218 31.7921 63.7024 33.8964 63.7415 36.0967C63.7807 38.2969 62.9753 40.4304 61.487 42.0692C59.9987 43.7081 57.9375 44.7311 55.7167 44.9331C53.496 45.1351 51.28 44.5011 49.5132 43.1584C50.5356 44.9146 52.0096 46.3735 53.7863 47.3877C55.563 48.4019 57.5794 48.9356 59.632 48.9348" fill="#CDC1B4"/>
<path d="M28.7674 38.0017C28.7676 37.8707 28.7283 37.7426 28.6546 37.6336C28.5809 37.5246 28.4761 37.4396 28.3535 37.3894C28.2308 37.3392 28.0959 37.326 27.9656 37.3516C27.8354 37.3771 27.7157 37.4402 27.6218 37.5328C27.5279 37.6255 27.464 37.7435 27.4382 37.872C27.4123 38.0006 27.4256 38.1338 27.4765 38.2548C27.5274 38.3758 27.6135 38.4792 27.724 38.5519C27.8344 38.6246 27.9643 38.6634 28.0971 38.6632C28.2747 38.6628 28.445 38.593 28.5707 38.4691C28.6963 38.3451 28.767 38.1771 28.7674 38.0017Z" fill="white"/>
<path d="M41 43.7256V57.7433L43.5251 47.4627L41 43.7256Z" fill="white"/>
<path d="M71.3073 27.0141C73.3804 29.6399 74.5042 32.8743 74.4998 36.2029C74.4998 44.4808 67.6992 51.1913 59.3116 51.1913C56.1705 51.1936 53.1067 50.2298 50.5463 48.4341C46.8184 45.269 46.7791 42.5421 46.7791 42.5421L56.1526 33.4457L56.0484 31.3859C56.0484 31.3859 58.3229 25.086 59.8413 25.086C61.3598 25.086 62.3457 26.988 62.3457 26.988L66.7083 22.853C66.7083 22.853 65.8345 22.984 65.8345 22.1999C65.8345 21.4159 70.0108 18.9306 70.0108 18.0332C70.0108 17.1357 68.7479 17.8507 68.7479 17.2519C68.7479 16.6532 72.5516 14.971 72.5516 14.3285C72.5516 13.6861 70.9718 14.0686 70.9718 13.3937C70.9718 12.7189 74.4998 11.248 74.4998 10.3252C74.4998 9.40234 72.7643 10.4498 72.7643 9.54675C72.7643 9.13254 73.2534 8.51615 73.7838 7.88356C74.4106 7.13544 75.0952 6.36408 75.0952 5.87871C75.0952 5.25951 72.4474 5.76811 69.7688 7.32493C69.4711 7.49823 69.1734 7.6842 68.8786 7.88356C67.9656 8.49045 67.1344 9.20934 66.4049 10.0229C66.1194 10.3428 65.8467 10.6964 65.5761 11.0719C62.824 14.9026 60.7337 21.1961 60.0319 21.1961C59.2617 21.1961 58.1972 18.9644 57.2592 18.9644C56.3211 18.9644 56.8208 26.2498 55.9427 26.2498C55.0646 26.2498 54.6784 24.5725 53.7868 24.5725C52.8951 24.5725 53.3127 31.7332 52.3661 32.8222C51.4194 33.9113 47.7893 37.4955 46.3693 39.053C44.9494 40.6106 42.5856 42.0117 42.5856 42.0117L45.8996 46.5279L41.0072 62.2116L36.1149 46.5279L39.4281 42.0117C39.4281 42.0117 37.0608 40.6099 35.6408 39.053C34.2209 37.4962 30.5907 33.9106 29.6441 32.8222C28.6974 31.7339 29.1151 24.5725 28.2234 24.5725C27.3317 24.5725 26.9462 26.2498 26.0674 26.2498C25.1886 26.2498 25.6869 18.9644 24.751 18.9644C23.8151 18.9644 22.7521 21.1961 21.9789 21.1961C21.255 21.1961 19.0584 14.5166 16.1835 10.7323C15.9936 10.4822 15.8008 10.2448 15.6052 10.0229C14.8707 9.20782 14.0333 8.48884 13.1137 7.88356C12.9609 7.78141 12.8103 7.67575 12.6575 7.57994C9.84476 5.82799 6.91492 5.22781 6.91492 5.87871C6.91492 6.36408 7.59955 7.13544 8.22636 7.88356C8.75678 8.51755 9.24651 9.13254 9.24651 9.54675C9.24651 10.4498 7.51103 9.40163 7.51103 10.3252C7.51103 11.2487 11.037 12.7153 11.037 13.3902C11.037 14.065 9.45783 13.6811 9.45783 14.325C9.45783 14.9688 13.2608 16.6496 13.2608 17.2484C13.2608 17.8472 11.9979 17.1343 11.9979 18.0296C11.9979 18.925 16.1742 21.411 16.1742 22.1964C16.1742 22.9819 15.3004 22.8494 15.3004 22.8494L19.6637 26.9845C19.6637 26.9845 20.6496 25.0825 22.1674 25.0825C23.6851 25.0825 25.9603 31.3824 25.9603 31.3824L25.8554 33.4421L35.2318 42.5386C35.2318 42.5386 35.1918 45.2662 31.4624 48.432C28.9025 50.2267 25.8395 51.19 22.6993 51.1878C14.3109 51.1878 7.51031 44.4772 7.51031 36.1993C7.50483 32.871 8.62761 29.6366 10.7 27.0106C9.23455 28.383 8.04378 30.0152 7.18977 31.8219C5.62633 35.1354 5.28567 38.8838 6.22672 42.4189C8.04431 49.2379 14.4116 54.2732 21.9889 54.2732C24.3225 54.2735 26.6294 53.7824 28.7553 52.8326H28.7753C28.7753 52.8326 28.9459 54.7121 29.5034 55.263C30.061 55.8138 30.9262 54.0654 31.538 54.6712C32.1499 55.2771 32.1998 57.713 32.7824 58.2885C33.3649 58.8641 34.5721 56.7522 35.2368 57.4073C35.9014 58.0624 35.3995 60.8386 36.1113 61.5417C36.8231 62.2447 36.8459 60.447 37.4813 61.0739C38.1166 61.7009 41.0079 66.4594 41.0079 66.4594C41.0079 66.4594 43.8971 61.703 44.5339 61.0739C45.1707 60.4448 45.1907 62.2454 45.9031 61.5417C46.6156 60.8379 46.1173 58.0624 46.7791 57.4073C47.4409 56.7522 48.6488 58.8648 49.2328 58.2885C49.8168 57.7123 49.866 55.2749 50.4771 54.6712C51.0882 54.0675 51.9527 55.8131 52.5117 55.263C53.0707 54.7128 53.2392 52.8326 53.2392 52.8326H53.2599C55.386 53.7824 57.6931 54.2736 60.0269 54.2732C67.6921 54.2732 74.1172 49.1188 75.8477 42.1772C76.6869 38.8229 76.3785 35.2889 74.9703 32.1255C74.1079 30.1981 72.8654 28.4594 71.3151 27.0106" fill="white"/>
<path d="M22.1475 36.352C22.1465 35.0726 22.6108 33.8353 23.456 32.8651L22.7 32.1289C21.5916 33.3409 20.9997 34.9282 21.0476 36.56C21.0955 38.1919 21.7796 39.7427 22.9573 40.8893C24.135 42.036 25.7155 42.6902 27.3698 42.7156C29.0241 42.7411 30.6246 42.1359 31.8379 41.026L31.1704 40.3758C30.3862 41.0588 29.4188 41.5038 28.3845 41.6575C27.3501 41.8111 26.2928 41.6668 25.3396 41.2418C24.3864 40.8169 23.5777 40.1295 23.0108 39.2621C22.4439 38.3946 22.1429 37.3842 22.1439 36.352" fill="white"/>
<path d="M54.5726 38.0017C54.5727 37.8708 54.5335 37.7427 54.4599 37.6337C54.3862 37.5247 54.2814 37.4397 54.1588 37.3895C54.0362 37.3393 53.9013 37.326 53.7711 37.3515C53.6408 37.377 53.5212 37.44 53.4273 37.5326C53.3333 37.6251 53.2694 37.7431 53.2434 37.8716C53.2175 38.0001 53.2307 38.1332 53.2815 38.2543C53.3323 38.3753 53.4183 38.4788 53.5286 38.5516C53.639 38.6244 53.7688 38.6632 53.9015 38.6632C54.0793 38.6628 54.2496 38.5931 54.3754 38.4691C54.5011 38.3452 54.572 38.1771 54.5726 38.0017Z" fill="white"/>
<path d="M54.4135 41.717C53.0919 41.7184 51.8155 41.2423 50.8254 40.3786L50.1558 41.0246C51.3691 42.1344 52.9696 42.7396 54.6239 42.7142C56.2782 42.6887 57.8587 42.0345 59.0364 40.8879C60.2141 39.7412 60.8982 38.1905 60.9461 36.5586C60.994 34.9267 60.4021 33.3395 59.2937 32.1274L58.5377 32.8636C59.2145 33.6423 59.6508 34.5963 59.7946 35.6124C59.9384 36.6285 59.7838 37.6639 59.3491 38.5959C58.9144 39.5278 58.2178 40.3171 57.3421 40.8701C56.4663 41.4231 55.4482 41.7165 54.4085 41.7156" fill="white"/>
<path d="M23.4559 32.8652C22.559 33.8954 22.0919 35.223 22.1487 36.5799C22.2055 37.9367 22.7821 39.2218 23.762 40.1754C24.7419 41.129 26.0521 41.6801 27.4279 41.7173C28.8036 41.7545 30.1424 41.2752 31.1739 40.376L30.1894 39.418C29.4331 39.8326 28.5611 39.9943 27.7039 39.8789C26.8468 39.7634 26.0505 39.3771 25.4346 38.7777C24.8186 38.1782 24.416 37.398 24.2871 36.5539C24.1581 35.7097 24.3099 34.8471 24.7195 34.0952L23.4559 32.8652Z" fill="#FDB515"/>
<path d="M50.8252 40.3765C51.8568 41.2745 53.1952 41.7529 54.5703 41.7152C55.9454 41.6774 57.2549 41.1263 58.2343 40.1731C59.2137 39.2199 59.7902 37.9356 59.8474 36.5793C59.9046 35.2231 59.4382 33.8959 58.5425 32.8657L57.2796 34.095C57.6901 34.8469 57.8425 35.7099 57.7139 36.5545C57.5854 37.3991 57.1828 38.1798 56.5665 38.7795C55.9503 39.3793 55.1536 39.7657 54.296 39.8809C53.4383 39.9961 52.5659 39.8338 51.8097 39.4184L50.8252 40.3765Z" fill="#FDB515"/>
</g>
<defs>
<clipPath id="clip0_4648_252308">
<rect width="82" height="73" fill="white"/>
</clipPath>
</defs>
</svg>
