<svg width="88" height="48" viewBox="0 0 88 48" fill="none" xmlns="http://www.w3.org/2000/svg">
<g clip-path="url(#clip0_2919_245302)">
<path d="M48.3574 14.5956C48.1238 14.635 47.9071 14.7424 47.7344 14.9044C47.5616 15.0664 47.4404 15.2758 47.3861 15.5063C47.3317 15.7368 47.3466 15.9782 47.4287 16.2003C47.5109 16.4224 47.6568 16.6154 47.8481 16.755C48.0394 16.8946 48.2677 16.9746 48.5043 16.9852C48.7409 16.9957 48.9753 16.9362 49.1782 16.8141C49.3812 16.692 49.5436 16.5128 49.6452 16.2988C49.7467 16.0849 49.7829 15.8457 49.7492 15.6113C49.6983 15.2925 49.5234 15.0069 49.2626 14.8166C49.0019 14.6263 48.6765 14.5469 48.3574 14.5956Z" fill="white"/>
<path d="M50.6708 16.1191C50.6063 16.1283 50.5442 16.1502 50.4883 16.1837C50.4323 16.2172 50.3837 16.2615 50.3451 16.3141C50.3065 16.3667 50.2789 16.4264 50.2638 16.4899C50.2486 16.5533 50.2464 16.6191 50.257 16.6834C50.2801 16.8115 50.3515 16.926 50.4565 17.003C50.5615 17.08 50.6921 17.1137 50.8213 17.0972C50.887 17.0907 50.9505 17.0704 51.0079 17.0377C51.0652 17.005 51.115 16.9606 51.154 16.9073C51.1931 16.8541 51.2204 16.7933 51.2344 16.7287C51.2484 16.6642 51.2486 16.5975 51.2351 16.5329C51.2259 16.4684 51.204 16.4063 51.1705 16.3504C51.137 16.2944 51.0927 16.2457 51.0401 16.2072C50.9875 16.1686 50.9278 16.141 50.8643 16.1259C50.8009 16.1107 50.7351 16.1084 50.6708 16.1191Z" fill="white"/>
<path d="M74.9154 30.7335L73.4671 32.7461L73.2414 31.0157C71.5538 30.8626 69.8715 31.3605 68.5392 32.4075L67.7116 34.9279C67.7116 34.9279 67.0909 36.5831 66.6771 37.9185C65.4733 41.9436 63.8746 42.9404 63.2539 43.185H64.6269C65.602 42.8466 66.4536 42.2243 67.0721 41.3981C66.9752 41.77 66.8363 42.1297 66.6583 42.4702H67.3166C67.5362 42.356 67.7496 42.2304 67.9561 42.094C70.1191 40.5705 76.3448 30.4326 76.3448 30.4326L74.9154 30.7335Z" fill="white"/>
<path d="M86.2759 17.3793C82.7028 14.4822 78.8753 11.9138 74.8401 9.70533C72.5238 8.44363 70.1445 7.30107 67.7116 6.28213C61.0845 3.52482 54.1313 1.62848 47.0219 0.639498C43.7155 0.220658 40.3862 0.00708252 37.0533 0C27.4244 0.0489639 17.8775 1.77377 8.84012 5.09718L5.86834 6.2069L4.30721 6.80878L0 8.52038L4.51411 9.55486C5.92326 9.92429 7.29574 10.4217 8.61442 11.0408C12.7921 12.9359 16.5224 15.6919 19.5611 19.1285C18.6772 19.0809 17.7975 18.9741 16.9279 18.8088L16.3636 18.6771L13.6364 17.8871L14.7273 20.6897C14.8915 21.0895 15.0799 21.4789 15.2915 21.8558C16.8745 24.5682 19.0003 26.9246 21.536 28.7774L17.7743 28.1755L20.6897 31.1473L20.953 31.4483L21.4044 31.9561C24.0778 34.8963 27.2647 37.3247 30.8088 39.1223L26.7649 38.7837L33.0658 42.094L34.4013 42.7524C37.6552 44.7273 45.0094 47.9812 58.0815 47.9812C60.5454 47.9812 63.1411 47.8683 65.7931 47.6238H66.2821H66.6583H66.8276H67.0721L67.3354 47.511C69.442 46.6646 72.1693 43.7492 75.6489 38.5016C79.4884 32.5729 83.0228 26.4521 86.2382 20.163L86.6897 19.279L87.1975 18.2445L86.2759 17.3793ZM84.9216 19.373C81.7372 25.6299 78.2342 31.7194 74.4263 37.6176C71.605 41.8307 68.7837 45.2915 66.7523 46.1191H66.5643H65.9812H65.6238C62.8965 46.3636 60.3762 46.4765 58.1003 46.4765C45.047 46.4765 37.8997 43.1285 35.116 41.4169H35.0031L33.7241 40.7774H34.1191C34.5329 40.7774 34.9467 40.7774 35.3229 40.7774H36.5078C37.4798 40.7295 38.4475 40.6164 39.4044 40.4389H39.3103C32.8116 39.2009 26.9019 35.856 22.4953 30.9216C22.1191 30.5266 21.8746 30.2257 21.7429 30.094C22.6383 30.2418 23.544 30.3172 24.4514 30.3198H25.1661H26.1254C26.3778 30.3035 26.6291 30.2721 26.8777 30.2257C22.5864 28.2812 18.9859 25.0808 16.5517 21.047C16.3645 20.7307 16.1949 20.4041 16.0439 20.069L16.7022 20.2194C17.8388 20.4286 18.9892 20.5543 20.1442 20.5956H21.6865H22.5705C19.1268 15.8849 14.5276 12.1408 9.2163 9.72414C7.80473 9.06978 6.33824 8.54109 4.83386 8.1442L6.41379 7.52351C7.37304 7.12853 8.29467 6.77116 9.29154 6.4326C18.1835 3.16089 27.5786 1.46772 37.0533 1.42947C40.3237 1.43588 43.5904 1.64948 46.8339 2.06897C53.8145 3.02084 60.6464 4.85363 67.1661 7.52351C69.7429 8.61442 72.0752 9.76176 74.1442 10.8903C78.133 13.0395 81.9114 15.5584 85.4295 18.4138C85.4295 18.4138 85.2038 18.8088 84.9216 19.373Z" fill="#DA4826"/>
<path d="M52.4012 41.21C54.9016 42.1318 57.5422 42.6154 60.2069 42.6395C61.1263 42.1865 61.9238 41.5197 62.5325 40.695C63.1412 39.8703 63.5434 38.9118 63.7053 37.8997C60.4101 40.2291 56.4325 41.3939 52.4012 41.21Z" fill="#DA4826"/>
<path d="M81.3292 17.8872C72.5865 12.0225 62.8855 7.73218 52.6646 5.21004C53.2743 5.88352 53.7471 6.66931 54.0565 7.52352C47.9843 5.54114 41.6352 4.53799 35.2477 4.55173C35.755 5.16832 36.1383 5.87729 36.3762 6.6395C31.9608 6.13731 27.5001 6.18786 23.0972 6.78997C23.0972 6.78997 22.4013 6.78997 21.442 7.10972L20.5956 7.33543C19.0409 7.63144 17.5303 8.12444 16.1003 8.80251C16.1003 8.80251 19.3543 9.38558 24.9969 15.4608H27.2351C26.051 13.3451 25.564 10.91 25.8433 8.50157L26.5956 8.63323C28.6353 9.01677 30.5368 9.93431 32.1063 11.2923C33.6758 12.6503 34.8571 14.4002 35.5298 16.3636C35.9163 15.3425 36.1077 14.2579 36.0941 13.1661C42.5267 10.4953 49.0721 8.82132 51.5737 12.1129C46.7022 10.3448 43.8433 13.2038 44.8778 16.2132C45.7054 12.6959 50.1818 11.8119 53.3417 15.4796C54.2948 16.4317 55.4413 17.168 56.7036 17.6385C57.9659 18.109 59.3146 18.3029 60.6583 18.2069C60.3301 17.774 60.0875 17.2825 59.9436 16.7586C61.5691 17.4704 63.3495 17.7553 65.116 17.5862C65.116 17.5862 65.116 15.1599 71.4922 17.3981C71.4922 17.3981 69.8746 18.8652 63.9687 19.4671C64.456 19.8691 65.0187 20.1697 65.6239 20.3511C65.6239 20.3511 59.1724 22.1191 54.696 20.6897C55.2593 20.2542 55.7053 19.6854 55.9938 19.0345C54.9559 19.5484 53.8134 19.8158 52.6552 19.8158C51.4971 19.8158 50.3545 19.5484 49.3166 19.0345C48.751 18.5384 48.0857 18.1692 47.3655 17.9518C46.6452 17.7344 45.8867 17.6739 45.1411 17.7743C45.7384 18.0256 46.2716 18.408 46.7014 18.893C47.1311 19.3781 47.4464 19.9535 47.6239 20.5768C47.6239 20.5768 36.5455 22.4577 29.9624 18.5078C30.7717 20.0268 31.9211 21.3383 33.3207 22.3399C34.7204 23.3415 36.3325 24.0062 38.0314 24.2821C43.2471 23.1666 48.659 23.3735 53.7743 24.884C53.0024 24.9265 52.2508 25.1473 51.5785 25.5292C50.9062 25.911 50.3316 26.4434 49.8997 27.0846C42.8504 27.5489 35.7755 27.4609 28.7398 26.8213C28.7398 26.8213 53.7555 31.9749 63.1223 25.674C59.7179 30.0564 51.4608 30.2633 48.5831 30.3009C48.4674 31.0741 48.4674 31.8601 48.5831 32.6332C44.2705 33.2938 39.9113 33.602 35.5486 33.5549C35.5486 33.5549 55.9938 35.5674 63.9499 30.094C63.1035 31.5799 59.6427 35.4922 49.0345 35.2853C50.9154 39.9498 55.8997 41.0408 61.8433 35.0031C73.3543 24.6959 77.8119 28.7774 78.9969 23.7743C79.6364 20.9342 74.3511 20.558 74.6897 17.7555C76.8396 18.4643 79.1529 18.5102 81.3292 17.8872ZM70.7398 20.163C69.6866 20.5768 68.7085 21.2539 70.0063 21.743C69.1708 21.9774 68.2829 21.9445 67.4671 21.6489C68.3669 20.8101 69.5161 20.2883 70.7398 20.163ZM71.022 26.3323C70.0084 26.7241 68.8991 26.7963 67.8433 26.5392C68.8228 25.403 70.1416 24.6118 71.605 24.2821C70.4577 24.9969 69.3292 25.9749 71.022 26.3323ZM76.1192 22.5705C75.1035 22.9655 74.2383 23.6426 75.4044 24.094C74.6097 24.3514 73.754 24.3514 72.9593 24.094C73.8169 23.2533 74.9272 22.7179 76.1192 22.5705Z" fill="#DA4826"/>
<path d="M75.4044 24.1505C74.1442 23.6991 75.1034 23.0219 76.1191 22.627C74.9364 22.7535 73.8272 23.262 72.9592 24.0752C73.746 24.3571 74.6017 24.3835 75.4044 24.1505Z" fill="#231F20"/>
<path d="M70.0063 21.7429C68.7085 21.2539 69.6865 20.5768 70.7398 20.163C69.5161 20.2883 68.3669 20.8101 67.4671 21.6489C68.2829 21.9445 69.1708 21.9774 70.0063 21.7429Z" fill="#231F20"/>
<path d="M71.6991 24.4514C70.2356 24.7811 68.9169 25.5723 67.9373 26.7085C68.9801 26.8927 70.054 26.7617 71.022 26.3323C69.3292 25.9749 70.4577 24.9969 71.6991 24.4514Z" fill="#231F20"/>
<path d="M74.1442 10.9655C72.0752 9.837 69.743 8.68966 67.1662 7.59875C60.6498 4.9031 53.8179 3.04501 46.8339 2.06897C43.5905 1.64948 40.3237 1.43589 37.0533 1.42947C27.5775 1.47375 18.1823 3.17329 9.29154 6.45142C8.3323 6.78998 7.41067 7.14734 6.4138 7.54233L4.83386 8.14421C6.33825 8.5411 7.80474 9.06979 9.21631 9.72414C14.5385 12.1671 19.1388 15.9445 22.5705 20.6897H21.6677H20.1254C18.9704 20.6484 17.82 20.5226 16.6834 20.3135L16.0251 20.163C16.1761 20.4982 16.3457 20.8247 16.5329 21.1411C18.9551 25.1593 22.5347 28.352 26.8025 30.3009C26.5539 30.3474 26.3026 30.3788 26.0502 30.395H25.0909H24.4514C23.5231 30.3707 22.5983 30.27 21.6865 30.094C21.8182 30.2257 22.0627 30.5267 22.4389 30.9216C26.8454 35.856 32.7552 39.2009 39.2539 40.4389H39.348C38.3911 40.6164 37.4234 40.7295 36.4514 40.7774H35.2665C34.8903 40.7774 34.4765 40.7774 34.0627 40.7774H33.6677L34.9467 41.4169H35.0596C37.8433 43.1285 44.9906 46.4765 58.0439 46.4765C60.3762 46.4765 62.8966 46.3636 65.5674 46.1191H65.9248H66.5079H66.6959C68.7461 45.2915 71.5486 41.8307 74.3699 37.6176C78.1761 31.7377 81.6791 25.6671 84.8652 19.4295C85.1474 18.8652 85.3166 18.5643 85.3166 18.5643C81.8375 15.6887 78.097 13.1447 74.1442 10.9655ZM60.1881 42.6395C57.5234 42.6154 54.8828 42.1318 52.3825 41.21C56.4074 41.3897 60.3776 40.2251 63.6677 37.8997C63.5077 38.91 63.1084 39.8673 62.5031 40.6918C61.8978 41.5164 61.104 42.1842 60.1881 42.6395ZM67.8997 42.094C67.6932 42.2305 67.4798 42.356 67.2602 42.4702H66.6019C66.7799 42.1297 66.9188 41.77 67.0157 41.3981C66.3972 42.2243 65.5456 42.8466 64.5706 43.185H63.1975C63.8182 42.9404 65.4169 41.9436 66.6207 37.9185C67.0345 36.5831 67.6552 34.9279 67.6552 34.9279L68.5204 32.4075C69.8528 31.3605 71.535 30.8626 73.2226 31.0157L73.4483 32.7461L74.8966 30.7335L76.2884 30.4326C76.2884 30.4326 70.0815 40.5705 67.9185 42.094H67.8997ZM78.9969 23.7743C77.8684 28.7774 73.4671 24.6959 61.9185 34.9655C55.9749 41.0031 50.9718 39.9122 49.1097 35.2477C59.7179 35.4545 63.1787 31.4859 64.0251 30.0564C56.0502 35.5674 35.511 33.5549 35.511 33.5549C39.8736 33.602 44.2329 33.2938 48.5455 32.6332C48.4298 31.8601 48.4298 31.0741 48.5455 30.3009C51.4232 30.3009 59.6803 30.0564 63.0847 25.674C53.6803 32.0125 28.7398 26.8213 28.7398 26.8213C35.7754 27.4609 42.8503 27.5489 49.8997 27.0846C50.3316 26.4434 50.9062 25.911 51.5785 25.5292C52.2508 25.1473 53.0024 24.9265 53.7743 24.884C48.659 23.3735 43.2471 23.1666 38.0314 24.2821C36.3561 23.9874 34.7702 23.314 33.3946 22.3133C32.0191 21.3126 30.8902 20.0111 30.0941 18.5078C36.6771 22.4389 47.7555 20.5768 47.7555 20.5768C47.5643 19.9402 47.229 19.3563 46.7756 18.8702C46.3222 18.3842 45.7629 18.0092 45.1411 17.7743C45.88 17.6612 46.6345 17.7067 47.3544 17.9078C48.0744 18.1089 48.7433 18.4609 49.3166 18.9404C50.3545 19.4544 51.497 19.7218 52.6552 19.7218C53.8133 19.7218 54.9559 19.4544 55.9937 18.9404C55.7052 19.5913 55.2592 20.1602 54.6959 20.5956C59.1724 22.0251 65.6238 20.2571 65.6238 20.2571C65.0187 20.0756 64.456 19.7751 63.9687 19.373C69.837 18.7712 71.4922 17.3041 71.4922 17.3041C65.0408 15.0658 65.116 17.4922 65.116 17.4922C63.3495 17.6612 61.5691 17.3764 59.9436 16.6646C60.0875 17.1884 60.3301 17.68 60.6583 18.1129C59.3146 18.2088 57.9659 18.015 56.7036 17.5445C55.4413 17.0739 54.2948 16.3377 53.3417 15.3856C50.1818 11.7179 45.7053 12.6019 44.8778 16.1191C43.8433 13.1097 46.7586 10.2508 51.5737 12.0188C49.0721 8.72728 42.5267 10.4013 36.0941 13.0721C36.0968 14.1864 35.8861 15.291 35.4734 16.326C34.8007 14.3626 33.6194 12.6127 32.0499 11.2547C30.4804 9.8967 28.5789 8.97915 26.5392 8.59562L25.7868 8.46396C25.5075 10.8723 25.9946 13.3075 27.1787 15.4232H24.9405C19.2978 9.40439 16.0439 8.78371 16.0439 8.78371C17.4739 8.10563 18.9845 7.61263 20.5392 7.31662L21.3856 7.09092C22.3448 6.86521 23.0408 6.77117 23.0408 6.77117C27.4436 6.16905 31.9044 6.1185 36.3198 6.6207C36.0818 5.85848 35.6986 5.14952 35.1912 4.53292C41.5987 4.51925 47.9673 5.52883 54.0564 7.52352C53.7471 6.66931 53.2743 5.88352 52.6646 5.21004C62.8855 7.73218 72.5865 12.0225 81.3292 17.8872C79.1353 18.5218 76.8005 18.4759 74.6332 17.7555C74.2947 20.558 79.58 20.9342 78.9969 23.7743ZM48.3574 14.5956C48.6765 14.5469 49.0019 14.6263 49.2626 14.8166C49.5234 15.0069 49.6983 15.2925 49.7492 15.6113C49.7874 15.8504 49.7538 16.0955 49.6525 16.3155C49.5512 16.5354 49.3869 16.7204 49.1804 16.8468C48.9739 16.9733 48.7344 17.0355 48.4925 17.0257C48.2505 17.0159 48.0169 16.9345 47.8213 16.7918C47.6257 16.649 47.4769 16.4514 47.3937 16.2239C47.3106 15.9965 47.2968 15.7495 47.3543 15.5143C47.4117 15.279 47.5377 15.0661 47.7163 14.9026C47.8949 14.739 48.118 14.6322 48.3574 14.5956ZM50.2383 16.6834C50.2284 16.6192 50.2312 16.5536 50.2467 16.4905C50.2621 16.4274 50.2899 16.368 50.3283 16.3156C50.3667 16.2632 50.4151 16.2188 50.4706 16.1851C50.5262 16.1514 50.5878 16.129 50.6521 16.1191C50.7163 16.1092 50.7818 16.1121 50.8449 16.1276C50.908 16.143 50.9675 16.1707 51.0199 16.2092C51.0723 16.2476 51.1166 16.296 51.1503 16.3515C51.184 16.4071 51.2064 16.4687 51.2163 16.5329C51.2298 16.5975 51.2296 16.6642 51.2156 16.7288C51.2017 16.7933 51.1743 16.8541 51.1353 16.9073C51.0962 16.9606 51.0464 17.005 50.9891 17.0377C50.9318 17.0704 50.8682 17.0907 50.8025 17.0972C50.6764 17.1087 50.5505 17.0726 50.4496 16.996C50.3487 16.9195 50.28 16.808 50.2571 16.6834H50.2383Z" fill="#231F20"/>
</g>
<defs>
<clipPath id="clip0_2919_245302">
<rect width="87.1599" height="48" fill="white"/>
</clipPath>
</defs>
</svg>
