<svg width="97" height="80" viewBox="0 0 97 80" fill="none" xmlns="http://www.w3.org/2000/svg">
<path d="M88.0091 12.4C81.9436 6.5 68.0283 0.00909091 48.2472 0C28.4707 0.00909091 14.56 6.5 8.49445 12.4C0.0953409 20.6682 0 30.3682 0 39.9273C0 49.4864 0.181602 59.0136 8.49445 67.2045C14.56 73.1 28.4707 79.5909 48.2472 79.6045C68.0283 79.5955 81.9436 73.1045 88.0045 67.2045C96.4082 58.9318 96.499 49.2364 96.499 39.6727C96.499 30.1091 96.3174 20.5864 88.0045 12.4M66.916 67.0591C63.1931 70.8227 56.9369 74.0409 48.3108 74.0409C39.6847 74.0409 33.4285 70.8227 29.7102 67.0591C24.9703 62.2318 23.6219 59.55 23.6219 39.9682C23.6219 20.3864 24.9703 17.7045 29.7102 12.8773C33.4285 9.12273 39.6892 5.90455 48.3108 5.90455C56.9324 5.90455 63.1931 9.11818 66.916 12.8773C71.6512 17.7045 73.0042 20.3909 73.0042 39.9682C73.0042 59.5455 71.6512 62.2318 66.916 67.0591Z" fill="#008842"/>
<path d="M91.3914 71.9318C92.7942 71.9318 93.961 73.0454 93.961 74.4954C93.961 75.9454 92.7897 77.059 91.3914 77.059C89.993 77.059 88.8217 75.9363 88.8217 74.4954C88.8217 73.0545 89.9885 71.9318 91.3914 71.9318ZM91.3914 77.559C93.103 77.559 94.4604 76.2045 94.4604 74.4954C94.4604 72.7863 93.1075 71.4318 91.3914 71.4318C89.6752 71.4318 88.3223 72.7863 88.3223 74.4954C88.3223 76.2045 89.6797 77.559 91.3914 77.559ZM91.9225 74.6499C92.3811 74.6363 92.8396 74.3863 92.8396 73.709C92.8396 72.9818 92.2812 72.7954 91.6547 72.7954H90.2064V76.2409H90.7058V74.6499H91.3459L92.2267 76.2409H92.7942L91.9225 74.6499ZM91.5639 73.2954C91.977 73.2954 92.3448 73.3272 92.3448 73.7636C92.3448 74.2318 91.7046 74.1545 91.237 74.1545H90.7058V73.2954H91.5639Z" fill="#008842"/>
</svg>
