<svg width="160" height="142" fill="none" xmlns="http://www.w3.org/2000/svg"><g clip-path="url(#a)"><path d="M78.8 23.446a3.342 3.342 0 0 0 0 6.682 3.342 3.342 0 0 0 3.336-3.34 3.344 3.344 0 0 0-3.336-3.342Zm.002 5.355a2.015 2.015 0 0 1-2.008-2.013c0-1.107.898-2.01 2.005-2.015a2.02 2.02 0 0 1 2.009 2.015 2.016 2.016 0 0 1-2.006 2.013Z" fill="#36246A"/><path d="M129.7 50.962c-.138-2.005-1.146-3.394-2.995-4.127a5.335 5.335 0 0 0-2.123-.414c-1.063 0-2.084.258-3.068.507-.497.125-.963.244-1.422.325l-.047.01c-.286.061-.573.132-.855.202v-1.37l-1.465.001a38.938 38.938 0 0 0-7.955-19.194l1.063-1.061-.875-.874c.225-.137.453-.278.688-.427.316-.197.649-.387 1-.59 1.555-.892 3.316-1.903 4.099-3.802.797-1.836.52-3.544-.825-5.084l-.059-.068-.069-.06c-.944-.824-1.972-1.24-3.053-1.24-.64 0-1.308.148-1.983.438-1.813.735-2.763 2.33-3.605 3.737-.262.439-.508.854-.774 1.236l-.026.04c-.159.246-.312.498-.462.749l-.968-.97-1.065 1.067a38.942 38.942 0 0 0-19.165-7.937v-1.54h-1.236c.062-.257.123-.518.186-.789.083-.361.184-.732.29-1.125.469-1.73 1-3.69.209-5.586C82.405 1.155 81 .14 78.96.004l-.09-.006-.09.006C76.776.141 75.386 1.15 74.654 3c-.764 1.8-.309 3.6.093 5.192.125.495.243.964.326 1.422l.008.047c.062.286.133.572.205.856h-1.371v1.542a38.96 38.96 0 0 0-19.149 7.92l-1.106-1.105-.873.872c-.137-.223-.278-.452-.425-.687-.199-.317-.39-.65-.59-1-.893-1.556-1.904-3.318-3.803-4.1-.674-.292-1.343-.44-1.984-.44-1.095 0-2.138.426-3.101 1.266l-.068.06-.06.068c-1.319 1.513-1.59 3.207-.8 5.036.735 1.812 2.33 2.764 3.737 3.604.44.263.854.51 1.236.776l.04.026c.245.157.498.31.749.462l-.97.968 1.1 1.1a38.95 38.95 0 0 0-7.96 19.132h-1.552v1.234l-.787-.184c-.364-.084-.734-.185-1.125-.29-1.11-.3-2.26-.613-3.452-.613-.788 0-1.495.135-2.136.404-1.86.735-2.873 2.14-3.01 4.178l-.007.09.007.09c.137 2.005 1.144 3.394 2.994 4.129a5.34 5.34 0 0 0 2.124.413c1.063 0 2.082-.258 3.068-.507.495-.125.963-.244 1.422-.326l.047-.01c.285-.06.572-.13.855-.202v1.371l1.536-.001c.11.876.25 1.764.422 2.646l.176.917s.233.999.42 1.768l.006.025.184.646C44.001 72 51.073 80.707 60.486 85.686c.546.312 13.868 7.889 17.223 11.066l1.094 1.03 1.099-1.032c3.352-3.175 16.673-10.752 17.22-11.064 9.414-4.979 16.487-13.687 19.405-23.893l.189-.67c.192-.779.425-1.787.425-1.787l.176-.913c.164-.846.3-1.701.407-2.554h1.467v-1.234c.255.062.517.123.785.184.366.084.736.187 1.127.292 1.109.302 2.259.61 3.451.612.789 0 1.495-.135 2.137-.403 1.86-.735 2.873-2.14 3.01-4.178l.007-.091-.007-.09h-.001Zm-14.275 9.849-.177.62c-2.863 10.008-9.735 18.321-18.767 23.094 0 0-13.931 7.887-17.494 11.262l-.185.175-.185-.175c-3.563-3.374-17.496-11.262-17.496-11.262-9.03-4.773-15.903-13.086-18.767-23.094l-.176-.62c-.17-.693.13-1.063.69-1.063.645 0 16.87 2.675 16.87 2.675.742.077 1.445.707 1.574 1.408l.952 5.147-9.844-.835A31.583 31.583 0 0 0 66.2 79.829s5.403 1.798 6.552-3.694c.654-3.128 2.071-33.24 2.071-33.24l-14.08-1.665c-.829-.005-1.671-.618-1.895-1.38l-1.207-4.212h17.562l.087-1.764c-2.605-1.298-4.399-3.978-4.399-7.085a7.922 7.922 0 0 1 7.91-7.92 7.922 7.922 0 0 1 7.912 7.92 7.91 7.91 0 0 1-4.396 7.085l.085 1.764h17.561l-1.208 4.212c-.222.762-1.065 1.375-1.893 1.38l-14.08 1.665s1.417 30.112 2.07 33.24c1.15 5.492 6.554 3.694 6.554 3.694a31.609 31.609 0 0 0 13.779-11.686l-9.764.835.95-5.147c.131-.7.83-1.331 1.576-1.408 0 0 16.265-2.675 16.79-2.675.558 0 .858.37.689 1.063h-.001ZM73.44 34.309H55.877l1.695 5.913c.38 1.295 1.691 2.285 3.076 2.335l12.788 1.512c-.436 9.109-1.489 29.427-1.984 31.794-.417 1.992-1.47 2.92-3.314 2.92a5.666 5.666 0 0 1-1.478-.202 30.097 30.097 0 0 1-11.483-8.874l8.707.74-1.268-6.858c-.234-1.264-1.387-2.322-2.696-2.482-2.499-.411-5.698-.936-8.653-1.412l-.177-.608a28.878 28.878 0 0 1-1.158-8.103c0-12.668 8.274-23.833 20.27-27.565a9.188 9.188 0 0 0-.639 3.37 9.178 9.178 0 0 0 3.877 7.52Zm13.96-10.89c11.994 3.732 20.27 14.896 20.27 27.565 0 2.75-.392 5.481-1.163 8.116l-.178.609c-2.365.382-5.22.848-8.566 1.398-1.306.158-2.462 1.216-2.699 2.484L93.8 70.448l8.625-.737a30.1 30.1 0 0 1-11.48 8.87c-.17.048-.764.201-1.48.201-1.845 0-2.897-.927-3.314-2.919-.495-2.368-1.549-22.685-1.986-31.794l12.79-1.512c1.385-.05 2.697-1.04 3.077-2.341l1.693-5.907H84.163a9.177 9.177 0 0 0 3.875-7.52c0-1.19-.228-2.325-.637-3.37Zm38.8 30.667c-1.865.777-3.948-.1-5.925-.557-.876-.2-1.663-.4-2.412-.579v1.594h-1.328a38.51 38.51 0 0 1-.523 3.628l-3.732.59a842.7 842.7 0 0 0-4.498.712 30.181 30.181 0 0 0 1.216-8.49c0-13.99-9.516-25.755-22.424-29.183a9.255 9.255 0 0 0-7.772-4.26c-3.26.005-6.125 1.703-7.772 4.26-12.91 3.43-22.425 15.193-22.425 29.183 0 2.944.428 5.788 1.213 8.476-2.536-.406-4.75-.751-5.972-.924l-2.252-.348a38.27 38.27 0 0 1-.535-3.722h-1.398V52.73c-.759.16-1.638.419-2.464.598-1.996.36-4.01 1.297-5.876.5-1.416-.56-2.074-1.537-2.174-2.993.1-1.476.759-2.474 2.174-3.032 1.867-.778 3.95.1 5.927.558.877.2 1.664.398 2.413.578v-1.594h1.412a37.724 37.724 0 0 1 8.56-20.563l-.008.004-1.001-1.001 1.226-1.226c-.65-.425-1.453-.862-2.165-1.321-1.664-1.155-3.752-1.917-4.507-3.801-.607-1.395-.383-2.553.578-3.652 1.115-.974 2.287-1.214 3.682-.607 1.87.77 2.722 2.863 3.795 4.584.479.761.896 1.459 1.299 2.116l1.127-1.128 1.002 1-.01.023a37.722 37.722 0 0 1 20.59-8.524v-1.405h1.734c-.16-.759-.42-1.637-.598-2.464-.36-1.995-1.299-4.01-.499-5.876.557-1.416 1.536-2.075 2.99-2.175 1.479.1 2.476.76 3.035 2.175.777 1.867-.1 3.95-.559 5.925-.2.877-.397 1.665-.577 2.414h1.593v1.405a37.714 37.714 0 0 1 20.591 8.525l.97-.967 1.225 1.226c.425-.65.862-1.454 1.321-2.166 1.157-1.664 1.917-3.751 3.801-4.505 1.395-.608 2.553-.382 3.654.577.974 1.115 1.212 2.286.607 3.681-.769 1.87-2.863 2.724-4.584 3.797-.763.477-1.459.894-2.116 1.297l1.127 1.129-.965.966a37.738 37.738 0 0 1 8.546 20.615h1.326v1.735c.759-.16 1.638-.42 2.464-.598 1.995-.359 4.01-1.298 5.875-.499 1.417.557 2.076 1.536 2.176 2.993-.1 1.476-.759 2.474-2.176 3.032h-.002Z" fill="#36246A"/><path d="M114.736 59.747c-.525 0-16.79 2.675-16.79 2.675-.745.077-1.444.707-1.575 1.408l-.95 5.146 9.764-.835a31.606 31.606 0 0 1-13.78 11.686S86 81.625 84.852 76.134c-.654-3.128-2.071-33.24-2.071-33.24l14.08-1.666c.829-.004 1.671-.618 1.893-1.379l1.209-4.213H82.4l-.085-1.764a7.911 7.911 0 0 0 4.397-7.084 7.921 7.921 0 0 0-7.912-7.92 7.922 7.922 0 0 0-7.91 7.92 7.908 7.908 0 0 0 4.398 7.084l-.087 1.764H57.64l1.206 4.213c.223.761 1.066 1.375 1.895 1.38l14.08 1.665s-1.417 30.112-2.07 33.24c-1.15 5.491-6.553 3.693-6.553 3.693a31.582 31.582 0 0 1-13.78-11.686l9.844.835-.952-5.146c-.129-.701-.832-1.331-1.573-1.408 0 0-16.225-2.675-16.871-2.675-.56 0-.859.37-.69 1.063l.176.62c2.865 10.008 9.737 18.321 18.768 23.094 0 0 13.932 7.887 17.495 11.262l.185.175.185-.175C82.55 92.412 96.48 84.524 96.48 84.524c9.033-4.773 15.904-13.086 18.767-23.095l.178-.62c.168-.692-.131-1.062-.689-1.062ZM78.801 30.128a3.34 3.34 0 0 1 0-6.682 3.341 3.341 0 0 1 0 6.682Z" fill="#fff"/><path d="M126.199 48.061c-1.865-.799-3.88.14-5.875.5-.825.178-1.704.436-2.463.597v-1.735h-1.327a37.73 37.73 0 0 0-8.546-20.616l.965-.965-1.127-1.129c.658-.403 1.354-.82 2.117-1.297 1.72-1.073 3.815-1.926 4.584-3.797.606-1.395.367-2.566-.608-3.68-1.1-.96-2.259-1.185-3.654-.579-1.884.755-2.644 2.841-3.801 4.506-.459.711-.896 1.516-1.321 2.166l-1.225-1.227-.97.968a37.719 37.719 0 0 0-20.59-8.525v-1.405h-1.594c.18-.75.378-1.538.578-2.414.459-1.976 1.335-4.059.558-5.925-.558-1.416-1.556-2.075-3.034-2.175-1.454.1-2.434.759-2.99 2.175-.8 1.866.139 3.88.499 5.875.178.827.437 1.706.598 2.465h-1.736v1.404a37.721 37.721 0 0 0-20.589 8.524l.01-.022-1.002-1-1.127 1.128c-.403-.657-.819-1.355-1.299-2.116-1.072-1.722-1.925-3.815-3.794-4.584-1.396-.607-2.568-.368-3.682.606-.96 1.1-1.185 2.257-.578 3.652.753 1.884 2.842 2.646 4.506 3.801.712.46 1.516.896 2.165 1.321l-1.226 1.227 1.002 1 .008-.003a37.72 37.72 0 0 0-8.56 20.563h-1.413v1.594c-.75-.18-1.536-.378-2.413-.578-1.975-.46-4.06-1.336-5.926-.559-1.417.559-2.075 1.556-2.174 3.033.1 1.456.758 2.433 2.174 2.992 1.866.797 3.88-.139 5.876-.5.825-.178 1.704-.438 2.463-.597v1.736h1.399c.117 1.26.298 2.5.534 3.721l2.253.348c1.222.173 3.435.519 5.971.924a30.191 30.191 0 0 1-1.212-8.475c0-13.99 9.515-25.754 22.425-29.183 1.646-2.557 4.512-4.255 7.77-4.26a9.255 9.255 0 0 1 7.774 4.26c12.908 3.428 22.423 15.193 22.423 29.183 0 2.949-.427 5.797-1.216 8.49 1.878-.302 3.376-.54 4.499-.712l3.731-.59c.229-1.19.406-2.4.523-3.628h1.328V52.95c.749.18 1.536.378 2.413.579 1.975.457 4.059 1.335 5.925.557 1.417-.559 2.076-1.556 2.176-3.033-.1-1.456-.759-2.434-2.176-2.992h.001Z" fill="#fff"/><path d="m60.123 109.319-1.905 6.647c.868 0 1.512-.121 1.93-.361.417-.239.814-1.018 1.192-2.334l.471-1.644c.272-.947.282-1.569.03-1.864-.252-.296-.823-.444-1.718-.444ZM41.655 108.637c-.406 0-.76.157-1.065.471-.305.313-.679 1.239-1.12 2.778L35.47 125.84c-.497 1.735-.733 2.805-.709 3.212.025.406.296.608.81.608.528 0 .932-.234 1.215-.7.28-.468.674-1.582 1.178-3.341l3.938-13.733c.4-1.391.577-2.281.535-2.668-.043-.387-.302-.581-.781-.581Z" fill="#36246A"/><path d="M156.766 105.716c-.649-1.104-1.775-1.889-3.348-2.332-1.359-.383-3.921-.569-7.831-.569H130.556l-1.737 6.056-.219-6.056h-8.872l-6.303 21.985 2.98-21.985h-13.938L92.389 126.72h-4.042l6.854-23.905H72.743c-1.31 0-2.58.885-3.105 2.11-.677-.822-1.587-1.388-2.702-1.648-1.327-.311-3.816-.462-7.607-.462h-6.52l-1.475 5.144a6.938 6.938 0 0 0-.533-1.817c-.613-1.351-1.644-2.375-3.069-3.038-1.3-.608-2.869-.916-4.662-.916-1.848 0-3.584.312-5.162.924a12.1 12.1 0 0 0-4.17 2.692 12.006 12.006 0 0 0-2.022 2.652c-.06-.997-.332-1.892-.816-2.668-.646-1.035-1.768-1.812-3.334-2.311-1.399-.446-3.392-.663-6.095-.663H11.056L0 141.364h9.359c1.616 0 3.18-1.202 3.638-2.796l3.328-11.608h1.448c2.199 0 4.113-.316 5.69-.936 1.404-.554 2.556-1.335 3.438-2.322-.514 1.899-.845 3.296-1.001 4.234-.252 1.502-.08 2.921.507 4.217.61 1.353 1.643 2.376 3.07 3.041 1.3.608 2.869.915 4.662.915 1.847 0 3.583-.311 5.16-.925a12.087 12.087 0 0 0 5.41-4.125l-1.27 4.422H63.6l2.55-8.889c.96-3.347 1.106-4.291 1.126-4.74.036-.787-.178-1.623-.64-2.486a2.86 2.86 0 0 0-.289-.437c.461-.252.864-.548 1.208-.89.984-.978 1.824-2.709 2.564-5.292.116-.406.216-.794.304-1.172h1.871l-6.848 23.882 1.825.02c.144.003.292.003.447.003h.142c2.175-.007 3.677-.232 4.727-.706a9.721 9.721 0 0 0 3.562-2.715l-.981 3.421H99.92l2.014-5.371h.154l-1.115 5.371h18.76l1.554-5.416.054 5.416h19.655c1.968 0 3.452-.108 4.534-.333a8.913 8.913 0 0 0 3.113-1.271c.953-.631 1.752-1.505 2.371-2.601.57-1.01 1.24-2.867 2.047-5.68l3.001-10.467c.841-2.934 1.305-4.873 1.42-5.928.138-1.264-.105-2.436-.719-3.484h.002ZM26.24 122.321c-.772 1.046-1.867 1.849-3.286 2.409-1.42.56-3.146.84-5.179.84H15.28l-3.617 12.615c-.283.988-1.314 1.788-2.301 1.788H1.848l10.256-35.767h9.367c2.534 0 4.424.198 5.673.596 1.247.397 2.106.971 2.577 1.723.47.752.672 1.661.608 2.728-.063 1.069-.414 2.722-1.058 4.96l-.893 3.116c-.655 2.282-1.367 3.946-2.138 4.992Zm16.25 9.185a10.688 10.688 0 0 1-3.693 2.381c-1.424.553-2.976.831-4.657.831-1.596 0-2.954-.262-4.074-.785-1.12-.524-1.916-1.308-2.39-2.353-.474-1.046-.607-2.185-.401-3.415.205-1.23.749-3.384 1.632-6.461l1.465-5.113c.863-3.003 1.542-5.129 2.042-6.378.498-1.249 1.267-2.39 2.308-3.424a10.608 10.608 0 0 1 3.692-2.381c1.422-.554 2.975-.831 4.658-.831 1.595 0 2.953.262 4.073.785 1.12.524 1.917 1.307 2.39 2.353.474 1.047.608 2.185.403 3.416-.206 1.23-.75 3.384-1.633 6.461l-1.465 5.113c-.862 3.002-1.54 5.128-2.04 6.378-.5 1.249-1.27 2.39-2.308 3.424l-.002-.001Zm26.292-19.141c-.668 2.325-1.404 3.888-2.208 4.688-.805.8-2.075 1.279-3.81 1.44 1.42.382 2.302.893 2.646 1.532.343.641.502 1.227.478 1.763-.025.536-.384 2.01-1.076 4.422l-2.26 7.882H55.37l2.848-9.931c.458-1.599.616-2.591.476-2.973-.142-.38-.746-.571-1.81-.571l-3.865 13.475h-7.732l8.569-29.884h5.474c3.648 0 6.079.141 7.288.424 1.211.283 2.057 1.007 2.538 2.169.48 1.163.356 3.018-.374 5.565v-.001Zm3.233 21.142c-1.081.488-2.786.579-4.16.584h-.04c-.183 0-.36-.001-.528-.004l6.853-23.9h-4.597l1.29-4.498c.236-.82 1.089-1.482 1.907-1.482h13.495c-2.36 1.978-3.425 3.937-4.188 5.98-.372.999-.673 2.018-1.017 3.072l-.072.251c-.937 3.287-3.516 12.339-3.902 13.607l-.001.006c-.393 1.308-1.287 4.688-5.04 6.385v-.001Zm16.012.584H77.015l4.837-16.871c.86-3.002 1.541-5.129 2.04-6.378.5-1.249 1.267-2.39 2.308-3.424 1.038-1.035 2.269-1.827 3.693-2.382 1.075-.417 2.239-.728 3.46-.83L86.5 128.11h4.726l-1.29 4.498c-.235.819-1.088 1.482-1.908 1.482v.001Zm14.656 0 1.116-5.371h-2.826l-2.016 5.371h-8.169l12.599-29.884h11.421l-4.049 29.884h-8.076Zm25.348 0h-5.312l-.138-13.586-3.895 13.586h-6.482l8.57-29.884h6.482l.486 13.457 3.859-13.457h6.482l-8.146 28.401c-.234.82-1.088 1.483-1.906 1.483Zm28.068-25.039c-.104.967-.562 2.864-1.374 5.695l-3.001 10.467c-.769 2.682-1.409 4.476-1.919 5.379-.512.905-1.155 1.613-1.928 2.124a7.476 7.476 0 0 1-2.629 1.07c-.98.203-2.396.305-4.251.305h-9.786l8.569-29.884h5.804c3.747 0 6.233.172 7.454.517 1.222.344 2.064.91 2.526 1.698.462.787.641 1.662.535 2.629Z" fill="#36246A"/><path d="M105.111 123.422c.571-3.384 1.369-7.568 2.396-12.551-2.446 5.722-4.151 9.906-5.115 12.551h2.719ZM19.65 110.327l-2.61 9.102c.26.014.487.023.678.023.854 0 1.508-.211 1.96-.63.45-.419.867-1.293 1.247-2.618l.842-2.938c.351-1.223.388-2.018.11-2.386-.277-.368-1.02-.551-2.227-.551v-.002ZM147.728 109.588c-.256-.179-.808-.269-1.656-.269l-5.637 19.66c1.118 0 1.87-.224 2.257-.675.387-.449.866-1.669 1.438-3.663l3.329-11.611c.389-1.353.593-2.22.618-2.601.023-.382-.094-.663-.349-.841Z" fill="#36246A"/><path d="m114.809 104.206-4.049 29.884h-8.077l1.116-5.371h-2.826l-2.016 5.371h-8.169l12.599-29.884h11.422Zm-9.698 19.215c.571-3.385 1.369-7.568 2.396-12.551-2.446 5.722-4.151 9.906-5.115 12.551h2.719ZM72.741 104.206c-.819 0-1.671.663-1.906 1.482l-1.29 4.498h4.596l-6.853 23.901c.168.002.345.003.527.003h.041c1.373-.004 3.08-.095 4.16-.584 3.753-1.697 4.646-5.077 5.04-6.385v-.006c.387-1.269 2.967-10.32 3.903-13.607l.072-.251c.343-1.052.645-2.073 1.017-3.072.763-2.043 1.828-4.002 4.189-5.98l-13.496.001ZM30.328 109.253c.064-1.066-.139-1.976-.608-2.728-.47-.752-1.33-1.325-2.577-1.723-1.25-.398-3.14-.596-5.673-.596h-9.367L1.847 139.973H9.36c.988 0 2.018-.8 2.302-1.788l3.616-12.615h2.497c2.032 0 3.758-.28 5.178-.84 1.419-.559 2.514-1.362 3.286-2.409.772-1.046 1.484-2.709 2.138-4.992l.894-3.116c.642-2.238.995-3.891 1.058-4.96Zm-9.403 6.949c-.38 1.326-.796 2.199-1.248 2.618-.45.42-1.104.63-1.959.63-.191 0-.418-.009-.678-.023l2.61-9.102c1.207 0 1.95.183 2.228.552.278.367.241 1.162-.11 2.385l-.843 2.938v.002ZM46.837 121.706c-.861 3.002-1.54 5.128-2.04 6.378-.5 1.249-1.269 2.39-2.307 3.424a10.686 10.686 0 0 1-3.694 2.381c-1.424.552-2.976.83-4.657.83-1.596 0-2.954-.262-4.074-.785-1.12-.523-1.916-1.307-2.39-2.353-.474-1.045-.607-2.184-.401-3.414.206-1.23.75-3.384 1.632-6.461l1.465-5.113c.863-3.003 1.542-5.129 2.042-6.378.498-1.249 1.268-2.39 2.308-3.424a10.608 10.608 0 0 1 3.693-2.381c1.422-.555 2.974-.831 4.657-.831 1.595 0 2.953.261 4.074.785 1.12.524 1.916 1.307 2.39 2.352.473 1.048.607 2.186.402 3.417-.206 1.23-.75 3.384-1.632 6.461l-1.466 5.113-.002-.001Zm-4.936-9.82c.4-1.391.577-2.28.535-2.668-.042-.387-.303-.581-.782-.581-.406 0-.76.157-1.065.471-.305.313-.678 1.24-1.119 2.778l-4.002 13.955c-.497 1.735-.733 2.805-.709 3.211.025.407.296.609.81.609.529 0 .933-.235 1.216-.701.28-.467.673-1.582 1.177-3.341l3.94-13.733ZM53.856 104.206h5.474c3.648 0 6.079.142 7.288.424 1.211.283 2.057 1.007 2.538 2.17.48 1.162.356 3.017-.374 5.565-.668 2.325-1.404 3.888-2.208 4.688-.804.8-2.075 1.28-3.81 1.44 1.42.382 2.302.893 2.646 1.532.343.641.502 1.227.478 1.763-.025.536-.384 2.01-1.076 4.422l-2.26 7.882H55.37l2.847-9.931c.458-1.599.616-2.591.476-2.973-.142-.38-.745-.571-1.81-.571l-3.865 13.475h-7.732l8.569-29.884v-.002Zm6.267 5.112-1.905 6.646c.868 0 1.512-.12 1.93-.36.417-.239.814-1.018 1.192-2.335l.471-1.643c.272-.948.282-1.569.03-1.865-.252-.295-.823-.443-1.718-.443ZM139.779 104.206h5.805c3.747 0 6.233.172 7.454.518 1.222.343 2.064.91 2.526 1.697.462.787.641 1.664.535 2.631-.105.966-.562 2.863-1.374 5.695l-3.001 10.466c-.769 2.682-1.409 4.476-1.92 5.38-.511.904-1.154 1.613-1.927 2.123a7.465 7.465 0 0 1-2.629 1.07c-.981.204-2.397.305-4.252.305h-9.785l8.568-29.885Zm6.294 5.112-5.638 19.66c1.118 0 1.871-.225 2.257-.675.387-.449.867-1.669 1.438-3.663l3.33-11.611c.389-1.353.593-2.22.618-2.602.023-.382-.094-.661-.35-.84-.256-.178-.807-.269-1.655-.269ZM131.603 104.206l-3.859 13.457-.487-13.457h-6.482l-8.569 29.884h6.482l3.895-13.586.138 13.586h5.312c.819 0 1.673-.664 1.906-1.482l8.146-28.402h-6.482ZM86.5 128.11l6.854-23.904c-1.222.103-2.386.413-3.461.831a10.625 10.625 0 0 0-3.694 2.381c-1.039 1.034-1.807 2.175-2.307 3.424-.499 1.249-1.18 3.376-2.04 6.378l-4.837 16.871h11.012c.82 0 1.674-.664 1.909-1.482l1.29-4.498H86.5v-.001ZM160 137.387h-.655v-3.661h-.021l-1.476 3.661h-.4l-1.435-3.661h-.021v3.661h-.656v-4.317h1.077l1.24 3.045 1.282-3.045h1.066v4.317H160Zm-5.454-3.661h-1.414v3.661h-.658v-3.661h-1.414v-.656h3.485l.001.656ZM90.879 93.779a1.823 1.823 0 1 1 0 3.648 1.822 1.822 0 0 1-1.829-1.824 1.82 1.82 0 0 1 1.829-1.824Zm0 4.003c1.22 0 2.184-.965 2.184-2.179a2.165 2.165 0 0 0-2.184-2.178c-1.22 0-2.184.964-2.184 2.178s.965 2.179 2.184 2.179Zm.378-2.068c.326-.01.653-.189.653-.67 0-.516-.399-.649-.842-.649h-1.03v2.45h.353v-1.13h.455l.626 1.13h.405l-.62-1.13ZM91 94.75c.294 0 .555.023.555.332 0 .332-.455.277-.787.277h-.378v-.609h.61Z" fill="#fff"/></g><defs><clipPath id="a"><path fill="#fff" d="M0 0h160v141.365H0z"/></clipPath></defs></svg>