<?xml version="1.0" encoding="UTF-8" standalone="no"?>
<svg xmlns:rdf="http://www.w3.org/1999/02/22-rdf-syntax-ns#" xmlns="http://www.w3.org/2000/svg" xml:space="preserve" height="130.12" viewBox="0 0 116.09179 130.125" width="116.09" version="1.1" xmlns:cc="http://creativecommons.org/ns#" xmlns:dc="http://purl.org/dc/elements/1.1/"><g transform="matrix(1.25 0 0 -1.25 -57.044 194.19)"><g transform="matrix(.5 0 0 .5 46.582 52.007)"><path d="m45.744 0c-21.102 0-45.746 13.727-45.746 52.412v13.52c0 28.945 18.523 43.719 29.629 49.969 0.23 0.1375 1.2335 0.74016 2.8223 1.6914 2.1988 1.315 5.5013 3.2885 9.4238 5.6348h-41.875v40.963c0 30.128 19.044 51.382 46.563 52.377 3.255 17.431 16.95 39.684 45.65 39.684h58.631c35.114 0 46.473-32.104 46.473-47.652 0 0-0.0268-109.5-0.0293-137.59 5.4762-5.4712 19.564-19.545 19.564-19.545l11.332-11.322h-77.908c-3.84-20.386-17.9-40.148-47.4-40.148h-57.126z" transform="matrix(.8 0 0 -.8 0 205)"/><path d="m45.744 6.6309c-18.921 0-39.113 12.027-39.113 45.781v13.521c0 25.644 16.496 38.722 26.326 44.234 0.0037 0 8.7133 5.2166 19.426 11.619v8.0684h-45.752v34.334c0 27.375 16.86 45.785 41.951 45.785h3.8574c0.6125 13.796 10.631 39.645 39.771 39.645h58.631c30.1 0 39.844-27.636 39.844-41.02 0 0-0.0312-117.66-0.0312-140.33 2.195-2.2012 21.51-21.492 21.51-21.492h-67.648c-1.82-19.634-13.41-40.149-41.64-40.149h-57.121z" transform="matrix(.8 0 0 -.8 0 205)" fill="#fff"/><path d="m54.715 56.645 7.543 7.5254v16.383l31.018 18.559v-42.467h-38.561zm95.055 0v147.52c0 1.3788-0.42203 5.3418-2.8945 5.3418h-50.697c-2.6938 0-2.9023-2.7919-2.9023-4.0156v-70.754l-31.02-18.541v92.4c0 7.8962 5.6188 31.148 29.955 31.148h58.631c24.59 0 29.957-23.71 29.957-31.148v-144.43l7.5195-7.5254h-38.549z" transform="matrix(.8 0 0 -.8 0 205)"/><path d="m45.744 16.502c-14.978 0-29.252 9.1577-29.252 35.91v13.52c0 19.222 11.442 30.111 21.297 35.645l59.117 35.32c5.8762 3.4 6.9238 8.0529 6.9238 11.369v15.148c0 5.2837-0.89422 6.228-4.543 6.3555h-6.0117v30.32h12.412c26.311 0 29.258-25.111 29.258-35.908v-17.268c0-15.279-3.1419-24.998-21.297-35.629l-59.113-35.345c-6.905-4.0425-6.9238-4.6965-6.9238-11.396v-12.34c0-5.305 2.1688-5.4082 5.75-5.4082h48.172c1.6775 0 2.2949 2.1605 2.2949 3.5293v32.83l31.115-17.35v-13.398c0-8.115-2.6451-35.91-32.08-35.91h-57.121zm-29.244 123.24v24.447c0 23.068 13.35 35.908 32.084 35.908h13.674v-30.291h-12.35c-1.6788 0-2.2949-2.1657-2.2949-3.5332v-26.531h-31.113z" transform="matrix(.8 0 0 -.8 0 205)" fill="#a00"/></g></g></svg>
