<svg xmlns="http://www.w3.org/2000/svg" xmlns:xlink="http://www.w3.org/1999/xlink" width="128" height="120" viewBox="0 0 128 120"><defs><path id="a" d="M.06.285h127.477V119.94H.06z"/></defs><g fill="none" fill-rule="evenodd"><mask id="b" fill="#fff"><use xlink:href="#a"/></mask><path fill="#EAA22E" mask="url(#b)" d="M10.478 109.956H8.822v8.5h.951V120H6v-1.544h.983v-8.5H5.326v1.709H3.62v-3.251h8.565v3.251h-1.707v-1.709M19.651 114.995h-3.316V120h-2.788v-1.544h.968v-8.5h-.968v-1.542h2.788v5.005h3.316v-5.005h2.805v1.542h-.986v8.5h.986V120h-2.805v-5.005M32.218 109.956v7.322c0 1.59-.525 2.722-2.821 2.722H27.69c-1.624 0-2.625-.424-2.625-2.674v-7.37h-.952v-1.542h2.789v8.074c0 1.789.114 1.968 1.526 1.968h.756c1.215 0 1.197-.473 1.197-1.968v-8.074h2.805v1.542h-.968M43.507 109.956V120h-1.723l-4.43-8.876V120h-2.593v-1.544h.969v-8.4h-.969v-1.642h2.971l4.134 8.649v-8.649h2.609v1.542h-.968M48.872 118.456h2.232c.838 0 1.264-.018 1.264-1.507v-5.381c0-1.575-.297-1.612-1.298-1.612h-2.198v8.5zm-2.789-10.042H51.5c1.835 0 2.72.493 2.72 3.02v5.693c0 1.774-.278 2.873-3.035 2.873h-5.102v-1.544h.967v-8.5h-.967v-1.542zM62.343 109.956h-3.2v3.369h3.446v1.557h-3.446v3.574h3.316v-2.131h1.69V120h-7.795v-1.544h.953v-8.5h-.953v-1.542h7.697v3.399h-1.708v-1.857M68.726 113.438h1.871c.787 0 1.28-.036 1.28-1.167v-1.164c0-.757-.182-1.151-1.232-1.151h-1.919v3.482zm5.169 5.018h.983V120H72.04v-3.837c0-.738-.097-1.168-1.346-1.168h-1.968V120H65.92v-1.544h.97v-8.5h-.97v-1.542h5.119c1.509 0 2.675.363 2.675 2.61v1.167c0 .965-.181 1.559-1.166 1.983.92.182 1.347.364 1.347 1.889v2.393zm5.43 0h2.231c.985 0 1.33-.063 1.33-1.375v-.873c0-1.308-.229-1.575-1.395-1.575h-2.166v3.823zm0-5.31h2.117c.984 0 1.427.01 1.427-1.265v-.757c0-.967-.181-1.168-1.69-1.168h-1.854v3.19zm-2.79-4.732h5.12c1.919 0 3.051.412 3.051 2.462v.756c0 .935-.049 1.887-1.526 2.251 1.526.636 1.51 1.062 1.51 2.211v1.151c0 1.673-.294 2.755-2.905 2.755h-5.25v-1.544h.967v-8.5h-.967v-1.542zM89.581 109.956v8.5h.984V120h-3.792v-1.544h.985v-8.5h-.985v-1.542h3.792v1.542h-.984M95.515 113.438h1.87c.788 0 1.279-.036 1.279-1.167v-1.164c0-.757-.18-1.151-1.231-1.151h-1.918v3.482zm5.168 5.018h.983V120h-2.837v-3.837c0-.738-.098-1.168-1.346-1.168h-1.968V120h-2.807v-1.544h.969v-8.5h-.969v-1.542h5.119c1.51 0 2.675.363 2.675 2.61v1.167c0 .965-.181 1.559-1.165 1.983.92.182 1.346.364 1.346 1.889v2.393zm5.222 0h2.234c.836 0 1.261-.018 1.261-1.507v-5.381c0-1.575-.295-1.612-1.294-1.612h-2.201v8.5zm-2.787-10.042h5.413c1.839 0 2.724.493 2.724 3.02v5.693c0 1.774-.279 2.873-3.037 2.873h-5.1v-1.544h.966v-8.5h-.966v-1.542zm16.265 3.199h-1.738v-1.657h-2.068c-.639 0-1.133-.031-1.133 1.219v.899c0 .545-.081 1.181 1.297 1.181h1.295c1.592 0 2.61.313 2.61 2.677v1.443c0 1.443-.411 2.625-2.592 2.625h-4.463v-3.311h1.755v1.767h1.985c1.132 0 1.461-.063 1.461-1.229v-.999c0-1.214-.395-1.214-1.263-1.214h-1.478c-1.28 0-2.444-.326-2.444-2.643v-1.415c0-1.556.576-2.542 2.674-2.542h4.102v3.199"/><path fill="#FFFFFE" d="M111.84 18.348c3.393 0 7.385.938 10.136 1.725l.736-1.261c-6.965-6.855-17.063-8.545-17.711-8.646-.028-.008-.059-.015-.093-.023 2.417-.728 7.377-1.83 10.738-2.33l.146-1.452c-9.196-3.346-18.062-4.973-27.109-4.973-9.246 0-18.776 1.703-29.132 5.207-6.833 2.312-12.01 4.613-15.382 6.839-2.134 1.407-3.506 2.753-4.094 4.006l-.265.094c-3.985 1.407-13.751 4.888-18.391 6.822-5.864 2.443-9.472 5.842-11.025 10.388-2.031 5.941.408 12.782 1.528 15.408l-10.026.005h-.752V64.88l.752.003c.66.003 1.963.002 2.792.001v22.075c0 4.979 1.308 8.714 3.888 11.101 2.839 2.625 6.398 2.908 7.796 2.908.206 0 .366-.007.438-.013h18.62c2.376 0 4.336-.938 5.599-2.064l.013 1.385v.753h.752c.305 0 34.153-.029 35.345-.038 3.037-.022 4.498-1.809 5.193-2.938 1.03 1.117 3.128 2.938 5.859 2.938h29.946v-.751c.004-.757.004-4.999.002-9.491a5530.93 5530.93 0 0 1 .002-11.032l.002-.756h-.756c-1.431 0-13.122.007-16.219.01l-.027-7.34 10.908-.002c2.875 0 4.576.001 5.054.004l.749.002.009-.746c.009-.804.005-5.451.004-9.945-.002-4.5-.004-9.152.005-9.964l.009-.762h-.761c-8.626 0-19.951-.006-25.626-.009 10.43-5.086 18.95-13.793 21.677-17.589l1.377-1.92-2.233.768c-1.638.564-3.287.914-4.305.914a3.19 3.19 0 0 1-.317-.014c-.815-.069-.994-.4-1.055-.512a2.138 2.138 0 0 1-.251-1.057c0-1.512 1.183-3.624 3.422-6.105l1.358-1.504-2.009.253c-.33.041-.648.062-.944.062-.893 0-1.58-.189-1.982-.545-.567-.502-.624-1.263-.173-2.263.703-1.558 2.65-2.349 5.783-2.349" mask="url(#b)"/><path fill="#EAA22E" d="M11.096 34.988c1.501-4.392 5.087-7.638 10.603-9.938 5.577-2.324 18.498-6.856 18.628-6.905 0 0 .294-.077.305-.105.558-1.569 3.566-5.461 19.15-10.732C79.89.505 97.237.414 115.525 7.068c-3.956.588-12.549 2.48-12.549 3.139-.002.28 1.878.698 1.878.698.485.071 10.476 1.709 17.319 8.444-5.174-1.479-14.761-3.503-16.812 1.038-.791 1.755-.114 2.715.358 3.136.8.705 2.136.84 3.52.666-1.755 1.945-3.617 4.501-3.617 6.611 0 .502.103.98.343 1.417.288.529.844.834 1.652.901 1.187.107 3.186-.338 4.93-.937-3.312 4.61-13.358 14.34-24.63 18.778 0 0 17.124.012 29.19.012-.02 1.633.009 18.309-.009 19.909-1.627-.008-16.724 0-16.724 0l.035 8.844 16.967-.01c-.006 1.629.005 18.925-.002 20.524H88.18c-3.51 0-5.94-3.464-5.94-3.464-.245-.072-1.106 3.436-5.116 3.464-1.172.01-34.949.039-35.339.039 0-.227-.038-3.657-.038-3.657-.417 1.391-2.92 3.618-6.411 3.582H16.78l-.033.002c-.045.006-4.418.31-7.67-2.698-2.444-2.259-3.647-5.805-3.647-10.547V64.13s-2.528.005-3.543 0V50.911c1.595 0 11.197-.008 11.197-.008s-4.434-8.759-1.988-15.915zM59.19 5.562c-14.451 4.887-18.764 8.96-19.75 10.941-1.849.652-13.262 4.681-18.45 6.846-6.027 2.513-9.941 6.228-11.639 11.041-.689 1.953-.95 3.908-.95 5.751 0 3.873 1.001 7.166 1.762 8.96-2.183-.012-10.159.007-10.159.007L0 65.872c2.924 0 3.027-.002 3.624 0-.018 2.879-.004 12.274-.004 21.087 0 5.288 1.377 9.298 4.225 11.918 3.752 3.453 8.536 3.343 8.994 3.308h18.717c.974.008 2.784-.065 4.728-1.674.018-.019.002 1.664.002 1.674 0 0 35.736.028 36.977-.065 1.773-.134 3.855-.497 5.118-2.355 1.181 1.13 2.913 2.401 5.615 2.401 3.935 0 31.184.019 31.184.019l.003-24.21h-16.902c0-.527-.009-3.448-.009-5.353 1.643.005 16.704-.011 16.704-.011V49.215H95.639c11.161-4.844 18.974-16.648 20.202-18.699.009-.011.025-.021.032-.031l-.011-.007c.107-.176 2.382-3.341 2.382-3.341s-2.704 1.812-3.785 2.324c-1.263.597-11.949 4.513-2.855-5.112l2.189-2.391c-1.809 1.101-6.371 1.195-6.237-1.194.175-3.172 11.131-.802 17.176 1.324l2.805.986-1.757-2.401c-4.695-6.42-12.434-9.345-17.108-10.591 3.146-.607 7.566-1.277 10.634-1.689l3.438-.461-3.214-1.305c-19.962-8.1-38.57-8.426-60.34-1.065z" mask="url(#b)"/><path fill="#080A28" d="M66.177 67.944c-.015.711-.137 1.297-.527 1.503-.366.196-.824.208-1.463.225-.276.002-1.674-.017-1.674-.017l-.005-7.412c1.158-.002 2.843-.07 3.317.426.139.144.298.246.309.565.05 1.524.057 3.938.043 4.71zm-4.03-7.65h-6.665v11.441h7.608c3.54 0 5.132.055 5.132-4.545v-2.711c0-3.483-.649-4.185-6.075-4.185zm3.788 27.793c-.377 1.01-1.91.763-3.44.747l.016-9.712c.734-.017 3.056-.162 3.406.744.391 1.003.393 7.221.018 8.221zM63.267 77.1h-7.785v13.743h8.022c3.539 0 4.776-.236 4.776-4.954v-3.123c0-4.721-.824-5.666-5.013-5.666z"/><g fill="#080A28"><path d="M43.95 30.5c.892-2.141-1.112-2.155-1.112-2.155s2.455 1.788-3.283 3.778c-5.74 1.991-6.705 2.701-6.705 2.701s9.988-2.638 12.968-1.483c.662.256.993.397 1.106.446-.425-.194-3.62-1.736-2.974-3.287"/><path d="M109.289 96.301H93.058c-6.548 0-9.319-2.476-9.319-10.32V66.046c0-8.378 2.596-11.381 9.319-11.381h15.697v12.267h-6.333l-.076-6.728h-7.341c-4.011 0-4.543.885-4.543 5.247v20.055c.296 4.424.945 5.249 4.423 5.249h7.842v-7.432h6.638l-.076 12.978zM81.652 78.292c-.51-2.429-2.543-3.67-3.599-3.67 0 0 3.098-.185 3.613-4.129l-.014 7.799zm-6.824-11.986c0 3.366-.177 6.784-5.484 8.081 5.484 2.298 5.424 3.834 5.424 7.963v4.128c0 6.016-1.062 9.905-10.438 9.905H45.456v-5.54h3.481V60.294h-3.481v-5.545h18.403c6.899 0 10.969 1.474 10.969 8.844v2.713zm-36.33-6.066h-3.479v26.3c0 5.721-1.887 9.79-10.144 9.79h-6.134c-5.84 0-9.438-1.532-9.438-9.615V60.24H5.882v-5.549H15.91v29.021c0 6.424.411 7.076 5.484 7.076h2.713c4.365 0 4.306-1.71 4.306-7.076V68.25a61.137 61.137 0 0 0 3.808 3.146s-2.098-3.735-3.808-7.802v-8.903h10.085v5.549zm-12.287 5.944l-.006 21.137c0 1.133-.801 1.367-1.173 1.411-.371.046-1.463.013-1.607 0-.144-.009-1.084-.125-1.039-1.402.036-1.107.038-15.277.034-25.205a64.216 64.216 0 0 0 3.791 4.059zm30.787-38.148c1.483-.472 3.864-1.216 5.705-1.731-.599.631-.981 1.002-2.298 2.146l-.416.363c-.532.469-1.181 1.039-1.809 1.495a1.752 1.752 0 0 0-1.182-2.273zm-1.968 2.617a99.55 99.55 0 0 1-3.219-.849c1.237-.146 2.436-.589 3.172-.954a1.747 1.747 0 0 0-.216.606c-.065.435.044.852.263 1.197zm-32.785-1.004l.264-.12c2.523-1.184 19.545-7.257 20.863-7.668.04.048.608.541 2.95.14-.255.387-.689 1.343-.637 2.266.029.554.841 3.566 3.182 5.047.49.31 1.063.461 1.662.514.35.167 1.215.483 3.398 1.259 2.384.845 3.725 1.275 3.984 1.275l.047-.005c.444-.066 3.573-3.899 5.451-6.244.859-.228 1.531-.38 1.797-.377 1.144.007 3.819.744 5.085.652 1.265-.097 4.651-1.276 5.134-1.42 0 0 .642-.358-.05-.271-.695.087-4.64.589-5.325.527 0 0-.904-.14-3.208-1.208-2.209-1.024-2.588-.768-3.07-.662 0 0-7.567 2.097-8.557 2.526-1.521.653-4.023 3.615-6.786-.067-.589-.783-.949-1.491-.828-2.237.344-2.135 3.959-3.865 3.995-3.882 0 0-3.373 1.036-4.782.979-.406-.015-1.082-.182-1.221-.619-.107-.338.032-1.087 2.177-2.309C72.243 3.789 97.479 6.559 100.4 6.968c-3.505.471-4.369 3.423-4.104 4.727.41 2.025 2.325 2.301 4.52 2.546 1.698.189 3.778.348 4.737.498-6.226.638-11.036 2.237-14.27 4.786-2.535 1.995-3.969 4.554-3.969 7.056 0 .086.002.17.006.254.095 2.457 1.573 4.247 3.51 4.259 2.085.012 4.84-.717 6.584-1.237.507-.152 2.122-.942 2.363-.995-.382 1.044-.869 2.362-4.352 3.607 0 0-6.882 1.853-5.663 4.181.511.981 3.882.749 4.418.672-2.919 2.336-8.459 5.847-13.625 7.119 3.336-4.616 3.57-12.023 3.57-13.927 0-.28-.005-.444-.005-.454-.013-.324-.211-.531-.514-.536-.462-.005-1.009.43-1.052 1.022-1.165 15.804-11.831 17.461-11.94 17.473-5.967 1.488-8.871.609-10.259-.384-1.433-1.037-1.558-2.389-1.56-2.409-.25-4.02 3.87-4.986 5.221-5.3.341-.082.453-.111.516-.16.05-.043.202-.164.162-.326-.042-.171-.254-.215-.336-.227-.128-.026-3.658.271-5.813 1.709-.881.591-1.406 1.292-1.562 2.086-.417 2.107-1.435 3.651-3.031 4.581-2.513 1.472-5.726 1.026-7.075.585-2.188-.72-4.123-.827-4.143-.832-1.795-.19-12.986 1.904-15.49 2.767-1.809.623-2.948 1.155-3.72.17.834-.944 2.993-1.39 3.016-1.395.008 0 26.095-6.832 26.095-6.832.534-.138.678-.403.716-.548a.514.514 0 0 0 .018-.136.565.565 0 0 0-.175-.399c-.229-.226-.608-.309-.992-.202l-.752.193c-15.046 3.866-24.915 6.627-27.789 7.774-.662.265-1.127.759-1.385 1.469-.166.464-.24 1-.24 1.587 0 3.249 2.264 7.941 3.02 9.422-4.766-3.617-8.5-13.048-8.534-13.15-.945-3.02-1.335-5.539-1.335-7.648 0-7.503 4.915-9.774 7.058-10.765zm78.301 51.674l-.002 7.228s-1.138.019-1.973.002c-.817-.016-1.389-.263-1.443-1.101-.116-1.8-.038-23.73-.038-23.73s-.033-.685.357-1.037c.375-.34 1.016-.3 2.743-.3l.006 6.748 15.026.005-.014-16.686c-10.425 0-16.41-.012-20.304-.012-3.468 0-5.163.206-6.61.695-3.132 1.072-6.002 3.68-6.528 8.266l.004-1.179s-.015-5.317-3.91-7.09c14.505-2.79 31.108-18.898 31.108-18.898-8.02 2.631-11.153.024-9.232-1.493 1.27-1 5.46-1.683 3.979-10.885-.005-.034-1.652 5.189-5.797 4.078-1.743-.469-5.925-6.646 10.069-9.387 4.355-.747 9.174.893 9.174.893-.025-.005-5.769-3.821-11.822-4.795-2.109-.34-5.311-.452-5.769-1.573-1.227-3 9.369-4.078 9.369-4.078S83.662-3.696 47.408 14.43c-1.992.995-4.977 2.986-5.1 4.731-.056.777-19.298 5.563-25.128 10.323-6.752 5.511-5.979 14.305-1.418 22.976l-12.147-.025.011 10.032 3.405-.006v26.23c.065.465.204 9.866 9.55 9.866 4.925 0 19.671.01 19.671.01.027 0 5.701-.928 5.701-9.934 0-8.165-.013-26.119-.013-26.119l1.335-.006v.003l3.382.003v26.094h-3.485l.015 10.072h32.101s6.422.22 6.498-7.998v-.039c.485 2.783 2.453 7.939 10.395 7.933 11.796-.002 23.395 0 23.395 0l-.009-17.263-15.021.01z"/></g><path fill="#EAA22E" d="M27.723 61.965a60.485 60.485 0 0 0 1.476 3.509V55.445h8.615v4.076h-3.483v27.047c0 3.064-.57 5.148-1.796 6.559-1.457 1.68-3.948 2.497-7.613 2.497h-6.137c-5.644 0-8.703-1.416-8.703-8.881V59.521H6.661v-4.076h8.555v28.294c0 3.524.144 5.284.993 6.396 1.005 1.318 2.802 1.42 5.231 1.42h2.714c1.806 0 3.589-.229 4.428-1.889.617-1.223.617-3.009.617-5.714V69.011c-.498-.43-.989-.87-1.476-1.318v16.259c.002 2.403.002 4.14-.458 5.05-.327.647-.982 1.078-3.111 1.078H21.44c-2.588 0-3.573-.204-4.059-.84-.584-.764-.691-2.452-.691-5.501v-29.51c-.05-.086-.096-.172-.145-.258H5.187v7.026h3.421v25.746c0 8.594 4.069 10.356 10.177 10.356h6.137c4.118 0 6.973-.983 8.729-3.004 1.47-1.695 2.156-4.086 2.156-7.527V60.997h3.481v-7.026H27.723v7.994M64.39 97.151H44.774v-7.014h3.479V61.049h-3.479l.05-7.02h19.095c7.031 0 11.711 1.629 11.711 9.584v2.714c0 2.738 0 6.375-4.213 8.195 4.154 2.115 4.154 4.024 4.152 7.723v4.261c0 5.824-.839 10.645-11.179 10.645zm-18.144-1.474H64.39c9.028 0 9.707-3.632 9.707-9.171v-4.13c0-4.025 0-5.201-4.977-7.283l-2.065-.866 2.175-.531c4.572-1.119 4.926-3.76 4.926-7.369v-2.714c0-6.816-3.6-8.11-10.237-8.11H46.246v4.073h3.483V91.61h-3.483v4.067zm17.318-4.067h-8.761V76.388h8.524c4.624 0 5.751 1.256 5.751 6.404v3.125c0 5.178-1.595 5.693-5.514 5.693zm-7.287-1.473h7.287c3.264 0 4.042 0 4.042-4.22v-3.125c0-4.331-.52-4.93-4.279-4.93h-7.05v12.275zM63.4 72.495h-8.597V59.576h7.404c5.605 0 6.814.875 6.814 4.924v2.712c0 2.472-.457 3.843-1.525 4.584-.989.684-2.297.699-4.096.699zm-7.123-1.474h6.874c1.696 0 2.87 0 3.502-.438.417-.288.893-.93.893-3.371V64.5c0-2.789 0-3.451-5.339-3.451h-5.93v9.972zm53.821 26.049h-16.97c-7.237 0-10.058-3.102-10.058-11.062V66.067c0-4.447.733-7.405 2.308-9.306 1.592-1.921 4.055-2.817 7.75-2.817h16.439v13.747h-7.802l-.076-6.73h-6.613c-1.879 0-2.779.202-3.209.72-.498.601-.597 1.896-.597 3.791V85.51c.124 1.844.318 3.201.846 3.836.428.511 1.197.7 2.841.7h7.106v-7.434h8.12l-.085 14.458zm-16.97-41.651c-3.222 0-5.325.726-6.615 2.283-1.342 1.622-1.968 4.28-1.968 8.365v19.941c0 7.168 2.165 9.587 8.583 9.587h15.503l.067-11.507h-5.161v7.433h-8.58c-1.818 0-3.117-.205-3.972-1.229-.794-.951-1.037-2.446-1.188-4.708l-.001-.05V65.472c0-2.335.148-3.78.936-4.731.864-1.045 2.305-1.255 4.344-1.255h8.073l.076 6.729h4.867V55.419H93.128z"/></g></svg>