<svg width="200" height="200" viewBox="0 0 200 200" fill="none" xmlns="http://www.w3.org/2000/svg">
<g clip-path="url(#clip0_5087_3201)">
<g clip-path="url(#clip1_5087_3201)">
<mask id="mask0_5087_3201" style="mask-type:luminance" maskUnits="userSpaceOnUse" x="31" y="18" width="138" height="165">
<path d="M31.6665 18.3335H168.159V182.703H31.6665V18.3335Z" fill="white"/>
</mask>
<g mask="url(#mask0_5087_3201)">
<path fill-rule="evenodd" clip-rule="evenodd" d="M168.159 115.74C168.159 162.934 119.442 182.703 119.442 182.703C119.442 182.703 104.667 172.202 99.9121 168.084C95.1596 172.202 80.3825 182.703 80.3825 182.703C80.3825 182.703 31.6665 162.934 31.6665 115.74V46.7362L59.9702 29.6946C62.6342 28.0773 65.6486 27.1241 68.7588 26.9153C71.869 26.7066 74.9839 27.2484 77.8405 28.4952L89.7954 21.1965C92.8484 19.3229 96.3612 18.3311 99.944 18.3311C103.527 18.3311 107.04 19.3229 110.093 21.1965L122.046 28.494C124.91 27.2455 128.033 26.7053 131.15 26.919C134.267 27.1327 137.286 28.0942 139.952 29.7219L168.16 46.9103V115.739L168.159 115.74Z" fill="#FFC627"/>
</g>
<path fill-rule="evenodd" clip-rule="evenodd" d="M137.8 33.2482C135.435 31.8051 132.724 31.0299 129.953 31.0052C127.183 30.9806 124.458 31.7074 122.068 33.1082L121.869 33.2254L107.938 24.7217C105.533 23.2454 102.766 22.4639 99.9436 22.4639C97.1211 22.4639 94.3539 23.2454 91.9491 24.7217L78.0171 33.2254L77.8133 33.1048C75.4274 31.707 72.7073 30.9805 69.9416 31.0026C67.1759 31.0246 64.4678 31.7943 62.1046 33.23L35.7974 49.0688V115.74C35.7974 159.292 79.8815 178.004 79.8815 178.004C79.8815 178.004 90.4173 170.578 99.9123 162.763C109.407 170.578 119.943 178.004 119.943 178.004C119.943 178.004 164.026 159.292 164.026 115.74V49.2281L137.8 33.2482Z" fill="#001F5B"/>
<path fill-rule="evenodd" clip-rule="evenodd" d="M93.1015 53.6126L85.3719 48.6569L99.9417 41.15L137.008 54.6709L126.43 47.5781L130.548 45.3341L153.933 54.3557L132.78 41.472C131.902 40.9373 130.895 40.6502 129.867 40.6412C128.838 40.6321 127.827 40.9016 126.939 41.4208L121.764 44.4488L102.911 32.9421C102.017 32.3962 100.99 32.1074 99.9422 32.1074C98.8947 32.1074 97.8675 32.3962 96.9737 32.9421L78.1217 44.4488L72.9397 41.4174C72.0538 40.8993 71.0442 40.6301 70.0178 40.6384C68.9913 40.6466 67.9861 40.9319 67.1086 41.464L45.9526 54.2999L70.0105 48.4475L93.1026 53.6137L93.1015 53.6126Z" fill="white"/>
<path fill-rule="evenodd" clip-rule="evenodd" d="M130.548 45.3344L126.43 47.5784L137.008 54.6711L99.9428 41.1514L85.373 48.6572L93.1026 53.6128L70.0105 48.4489L45.9526 54.2979C56.4486 57.12 65.2454 64.0454 70.5538 73.2387C77.9121 63.9453 88.1439 57.0232 99.9132 53.8256C111.815 57.0608 122.148 64.0966 129.524 73.5494C134.813 64.314 143.416 57.1837 153.933 54.3571L130.548 45.3333V45.3344Z" fill="#6CB2E2"/>
<path fill-rule="evenodd" clip-rule="evenodd" d="M135.579 94.205V115.737C135.579 138.845 121.46 152.284 121.317 152.417L120.775 152.922L120.185 152.475C120.13 152.432 114.515 148.165 108.945 142.745L108.315 142.132L108.926 141.503C117.704 132.468 122.155 125.31 122.155 120.234L122.115 110.078H106.161V119.307C106.161 125.378 100.763 130.795 100.533 131.023L99.9132 131.636L99.2936 131.022C99.0635 130.794 93.6641 125.378 93.6641 119.308V85.0618C93.6641 80.8218 99.2116 77.3215 99.4473 77.1748L99.9143 76.8857L100.378 77.1748C100.615 77.3215 106.161 80.8218 106.161 85.0606V97.5892H122.061L122.038 86.7925C122.038 73.6654 102.561 65.7568 99.9132 64.7429C97.2652 65.7556 77.7868 73.6642 77.7868 86.7903L77.6707 120.236C77.6707 125.312 82.1214 132.468 90.9 141.503L91.5116 142.132L90.8818 142.745C85.3103 148.165 79.6979 152.432 79.6409 152.474L79.051 152.922L78.5089 152.417C78.3665 152.284 64.2477 138.845 64.2477 115.737V94.205C64.2477 73.5095 49.6449 66.2904 45.439 64.6416V115.74C45.439 133.854 54.6754 146.802 62.4232 154.476C69.752 161.733 77.173 165.782 79.0544 166.748C81.0361 165.33 90.0139 158.809 99.33 150.582L99.9132 150.067L100.495 150.582C109.853 158.845 118.797 165.337 120.771 166.748C122.651 165.783 130.073 161.734 137.403 154.476C145.15 146.802 154.386 133.854 154.386 115.74V64.6245C150.143 66.2256 135.579 73.2478 135.579 94.205Z" fill="white"/>
</g>
</g>
<defs>
<clipPath id="clip0_5087_3201">
<rect width="200" height="200" fill="white"/>
</clipPath>
<clipPath id="clip1_5087_3201">
<rect width="136.667" height="165" fill="white" transform="translate(31.6665 18.3335)"/>
</clipPath>
</defs>
</svg>
