<?xml version="1.0" encoding="UTF-8"?>
<svg width="200px" height="200px" viewBox="0 0 200 200" version="1.1" xmlns="http://www.w3.org/2000/svg" xmlns:xlink="http://www.w3.org/1999/xlink">
    <!-- Generator: Sketch 54.1 (76490) - https://sketchapp.com -->
    <title>willamette</title>
    <desc>Created with Sketch.</desc>
    <g id="willamette" stroke="none" stroke-width="1" fill="none" fill-rule="evenodd">
        <g id="willamette_BGL">
            <g id="willamette" transform="translate(0.000000, 32.000000)">
                <g id="g10" transform="translate(100.000000, 68.504753) scale(-1, 1) rotate(-180.000000) translate(-100.000000, -68.504753) translate(0.000000, 0.208834)" fill-rule="nonzero">
                    <g id="g12">
                        <path d="M148.345655,60.280529 C148.524874,59.6049536 148.620914,58.8933703 148.620914,58.1612112 C148.620914,53.5985051 144.920783,49.8991296 140.356288,49.8991296 C137.300143,49.8991296 134.629875,51.5589189 133.200416,54.0263124 C128.726816,51.1474009 125.473445,44.8828964 122.30068,24.0943776 C121.496341,24.8762619 121.077879,28.7436739 121.077879,29.1963438 C121.82648,47.8629727 116.131794,48.7494511 114.69376,53.3052985 C112.550857,60.0927739 115.214265,69.8886175 124.044843,75.7150268 C120.495633,71.6135638 122.442168,66.1626647 125.721264,67.9150456 C128.153146,69.2147567 128.906035,75.2306358 138.432049,78.7842654 C143.897781,80.8221369 154.553128,83.1429271 158.134923,87.1269359 C164.016545,93.6675005 163.732711,98.8826341 163.732711,98.8826341 C155.614718,86.2644627 142.16648,85.6197512 137.447634,84.7615646 C127.47829,82.9508853 120.109756,77.3713868 114.62516,70.2932769 C114.247858,76.0948236 121.112179,83.1832216 123.117024,85.1216429 C120.81291,83.017757 111.416379,75.1183257 99.8700846,74.7959699 C88.3237903,75.1183257 78.9306892,83.017757 76.6274329,85.1216429 C78.6322777,83.1832216 85.4965989,76.0948236 85.1192971,70.2932769 C79.6347001,77.3713868 72.2661665,82.9508853 62.29768,84.7615646 C57.5771193,85.6197512 44.1297382,86.2644627 36.0125176,98.8826341 C36.0125176,98.8826341 35.7277405,93.6675005 41.6093618,87.1269359 C45.192186,83.1429271 55.8466758,80.8221369 61.3124076,78.7842654 C70.8384219,75.2306358 71.5913106,69.2147567 74.0231926,67.9150456 C77.3022887,66.1626647 79.2488233,71.6135638 75.6996133,75.7150268 C84.5301917,69.8886175 87.1927423,60.0927739 85.0498393,53.3052985 C83.6118047,48.7494511 77.9179767,47.8629727 78.6665779,29.1963438 C78.6665779,28.7436739 78.2481158,24.8762619 77.4429194,24.0943776 C74.2684388,44.9009003 71.0124953,51.1585462 66.5320358,54.0340284 C65.1034338,51.5623482 62.4323081,49.8991296 59.3718756,49.8991296 C54.8073807,49.8991296 51.1081075,53.5985051 51.1081075,58.1612112 C51.1081075,58.8933703 51.2032905,59.6049536 51.3825089,60.280529 L49.1392778,61.3539052 C48.5004372,59.454921 48.158293,56.0453227 50.4469718,50.8781995 C40.358006,56.7714805 41.0168264,68.5769038 44.176901,72.2694207 C35.0960171,73.7586015 30.3198044,66.233823 29.4562976,60.5162945 C28.2289519,52.3913856 31.0885569,45.7942373 35.5669584,42.6924202 C38.9980043,40.3159036 42.3814586,35.2799519 44.187191,29.634439 C44.187191,29.634439 40.1503184,32.6102287 35.4172382,33.1383435 C35.9391152,29.4698318 44.1477458,26.1802596 46.9140544,8.59558014 C44.790874,10.777483 41.5631424,20.2278229 33.2500678,23.3210667 C28.5281351,25.0777342 19.6512515,30.5260614 20.6956916,37.8322209 C23.3063632,33.6347371 27.8172641,34.1628519 27.8172641,34.1628519 C20.6450989,39.8615192 17.6789918,48.0558718 17.8886516,53.9131449 C14.7306351,57.582514 12.8286907,62.2592448 13.033377,68.0916554 C13.2960305,75.5692808 9.65764014,83.6941898 6.56024917,84.0911332 C10.2146749,87.1646584 16.905866,82.8677244 14.4000672,85.8092209 C11.8938396,88.7507175 -10.3265813,103.814849 8.71104124,135.746933 C11.9926241,118.483752 25.0494977,117.203759 25.0494977,117.203759 C25.0494977,117.203759 24.2144601,119.715734 24.9101533,122.658088 C38.4191889,107.641109 56.8816834,117.732731 66.4642929,107.526227 C64.9842407,109.350624 64.4928908,110.965832 65.2114793,113.806164 C77.5664,103.527644 87.9344834,109.542665 99.8700846,109.542665 C111.806543,109.542665 122.178057,103.527644 134.532977,113.806164 C135.251566,110.965832 134.760216,109.350624 133.280164,107.526227 C142.862773,117.732731 161.325696,107.641109 174.834818,122.658088 C175.531111,119.715734 174.695902,117.203759 174.695902,117.203759 C174.695902,117.203759 187.753119,118.483752 191.034787,135.746933 C210.073096,103.814849 187.851732,88.7507175 185.345247,85.8092209 C182.83962,82.8677244 189.530725,87.1646584 193.185408,84.0911332 C190.088103,83.6941898 186.449712,75.5692808 186.712109,68.0916554 C186.917052,62.2592448 185.01425,57.582514 181.857777,53.9131449 C182.067008,48.0558718 179.100901,39.8615192 171.927021,34.1628519 C171.927021,34.1628519 176.439208,33.6347371 179.049451,37.8322209 C180.093891,30.5260614 171.21615,25.0777342 166.495589,23.3210667 C158.181229,20.2278229 154.95444,10.777483 152.83126,8.59558014 C155.597568,26.1802596 163.805599,29.4698318 164.327819,33.1383435 C159.595253,32.6102287 155.558123,29.634439 155.558123,29.634439 C157.363169,35.2799519 160.746881,40.3159036 164.177755,42.6924202 C168.6565,45.7942373 171.516277,52.3913856 170.28833,60.5162945 C169.424824,66.233823 164.648525,73.7586015 155.567556,72.2694207 C158.728316,68.5769038 159.386879,56.7714805 149.297485,50.8781995 C151.590451,56.051324 151.243162,59.4626369 150.603464,61.3607638 L148.345655,60.280529 L148.345655,60.280529" id="path82" fill="#AB9E76"></path>
                        <path d="M99.8743721,19.8823192 C105.594783,19.8823192 109.425254,23.1504582 113.510404,24.3755816 C117.596412,25.6007051 118.412756,22.7415121 118.412756,22.7415121 C118.412756,22.7415121 121.674702,15.3016092 118.722315,13.8184297 C104.961945,6.90664159 107.970069,4.16318812 103.505902,1.94870676 C101.987262,1.19511439 99.8726571,1.64692688 99.8726571,1.64692688 C99.8726571,1.64692688 97.7666267,1.19511439 96.2471293,1.94870676 C91.7846773,4.16318812 94.7919446,6.90664159 81.0315745,13.8184297 C78.0791875,15.3016092 81.340276,22.7415121 81.340276,22.7415121 C81.340276,22.7415121 82.1574775,25.6007051 86.2434851,24.3755816 C90.3294927,23.1504582 94.154819,19.8823192 99.8743721,19.8823192 L99.8743721,19.8823192" id="path84" fill="#960A2C"></path>
                        <path d="M99.8717996,3.14982499 L100.180501,3.08466797 C100.630691,2.99121908 101.997553,2.84118647 102.853342,3.2647071 C104.151603,3.90941867 104.61637,4.55070092 105.387267,5.61207448 C106.905907,7.70567242 108.986212,10.5734386 118.062036,15.1318581 C119.007864,15.6068184 118.290133,19.3602057 117.066474,22.1516696 L116.999589,22.3385674 C116.893258,22.63949 116.32559,23.6845743 113.934011,22.967847 C112.64947,22.5820489 111.346063,21.9553412 109.967197,21.2926258 C107.15887,19.9423323 103.976672,18.4119996 99.8743721,18.4119996 C95.7729294,18.4119996 92.5933038,19.9423323 89.78755,21.2917684 C88.4086833,21.9553412 87.1052768,22.5820489 85.8207355,22.967847 C84.7651479,23.2842015 83.9145037,23.2919175 83.3614135,22.9901376 C82.9155113,22.7457988 82.755158,22.3419967 82.7543005,22.3377101 L82.6874151,22.152527 C81.4671867,19.3593484 80.7511706,15.6042464 81.6918528,15.1318581 C90.7676773,10.5725813 92.8479826,7.70567242 94.3666225,5.61207448 C95.1375188,4.55070092 95.6022861,3.90941867 96.9005475,3.2647071 C97.7803468,2.82832653 99.2252414,3.01179499 99.5639556,3.08381064 L99.8717996,3.14982499 Z M98.440625,0.0411492675 C97.5805483,0.0411492675 96.5309632,0.166319332 95.593711,0.630991765 C93.646319,1.59805912 92.840265,2.70915777 91.9861908,3.88627078 C90.6450542,5.73552989 88.8082802,8.26722305 80.3712963,12.5050013 C76.4276344,14.4862892 79.2796934,21.6844252 79.9674118,23.2721989 C80.1097575,23.6725717 80.6199725,24.8419687 81.950819,25.5689839 C83.2267853,26.2668499 84.8131681,26.3397228 86.6662347,25.7833162 C88.1720121,25.3315037 89.5757465,24.6559283 91.0626588,23.9409157 C93.7080593,22.6686392 96.4434977,21.3517815 99.8743721,21.3517815 C103.306104,21.3517815 106.044115,22.6686392 108.692088,23.941773 C110.179,24.6567856 111.581877,25.3315037 113.088512,25.7833162 C114.939006,26.3397228 116.527961,26.2677072 117.80307,25.5689839 C119.133059,24.8419687 119.644132,23.673429 119.78562,23.2721989 C120.475053,21.6844252 123.326255,14.4862892 119.381735,12.5050013 C110.945609,8.26722305 109.108835,5.73552989 107.767698,3.88627078 C106.913624,2.70915777 106.10757,1.59805912 104.159321,0.631849094 C102.563505,-0.161180426 100.635836,0.0317186461 99.8726571,0.153459394 C99.5588105,0.1037343 99.0468805,0.0411492675 98.440625,0.0411492675 L98.440625,0.0411492675 Z" id="path86" fill="#AB9E76"></path>
                        <path d="M160.684283,25.191759 C161.893364,26.8995588 163.03556,28.178694 163.905069,29.2580715 C164.767718,30.327161 165.662095,31.5274219 165.860179,32.9205819 L166.14144,34.8984404 L164.156318,34.6763921 C162.48933,34.4903516 160.920097,34.0342525 159.560953,33.5052804 L158.596261,33.1297702 L159.07732,34.0453978 C160.797474,37.3186807 162.96696,39.9712573 165.060127,41.421001 C170.129692,44.9326214 173.113807,52.1787679 171.818976,60.7469161 C170.898016,66.8459561 165.654378,75.4921212 155.317164,73.796324 L152.604879,73.3513702 L154.391917,71.2629162 C156.36675,68.954986 157.318579,61.9300304 153.239432,56.3968277 L152.39136,55.2462919 L152.543996,56.6677437 C152.778094,58.8685078 152.496833,60.5891675 152.069796,61.8554428 L151.511561,63.5109455 L146.522601,61.1232836 L146.84931,59.8853002 C146.995086,59.3357522 147.073119,58.759627 147.073119,58.1612112 C147.073119,54.452405 144.065852,51.4466088 140.356288,51.4466088 C137.874671,51.4466088 135.703471,52.7926157 134.539837,54.8021953 L133.726923,56.2056433 L132.362634,55.3277381 C128.524445,52.8577727 125.720407,48.3285025 123.234502,37.6204606 L122.690844,35.2773799 L122.472181,37.6727577 C122.073441,42.0468513 121.173062,44.9934918 120.099466,47.2156891 C119.690437,48.0610157 119.264257,48.7863163 118.841508,49.4387438 C118.438481,50.0620221 118.038026,50.6149995 117.663297,51.1396849 C116.931846,52.1650507 116.446498,52.8937805 116.170382,53.7708283 C114.70062,58.4261259 115.733055,64.8389484 120.008571,70.0446514 L120.552229,70.7082242 L120.689429,69.8611829 C120.725445,69.639992 120.77175,69.4230877 120.83006,69.2113274 C121.445748,66.9565516 123.634099,65.0447074 126.450143,66.5501775 C127.422552,67.069719 128.110271,67.9870613 128.661646,68.7749468 C129.207876,69.5542591 129.808129,70.5136105 130.626188,71.5398335 C132.155976,73.4568216 134.502965,75.666159 138.973992,77.3345217 C141.69914,78.3504568 145.718262,79.4366929 149.502428,80.7655532 C153.255724,82.0841255 157.193384,83.7653481 159.285694,86.0921396 C165.494024,92.9953544 165.295941,98.6391526 165.277933,98.9666523 L165.01811,103.740261 L162.431019,99.7202447 C158.593688,93.7540907 153.506973,90.6205525 148.776122,88.8630276 C146.385401,87.9739772 144.096722,87.4415757 142.123605,87.0780682 C140.073312,86.699986 138.348871,86.4985136 137.169803,86.2841813 C130.470122,85.0676312 124.904063,82.2187262 120.279542,78.4018965 L117.836513,76.3854582 L119.722165,78.9300113 C121.350565,81.1290608 123.134174,82.9800345 124.117731,83.9368139 C124.117731,83.9368139 125.828452,85.869234 126.188604,87.6181856 C126.345527,88.3914965 125.624366,88.2191733 125.624366,88.2191733 C123.597226,87.6396188 122.033996,86.2284549 122.033996,86.2284549 C119.707587,84.1125664 110.72523,76.6675195 99.860652,76.3443064 C88.9917861,76.6760928 80.0128595,84.132285 77.7018857,86.2370282 C77.7018857,86.2370282 75.2322735,88.1051486 73.9408722,88.436935 C72.991615,88.705279 73.3354742,87.7613595 73.3354742,87.7613595 C74.202411,85.6146072 75.6147204,83.9488165 75.6147204,83.9488165 C76.5957052,82.9946091 78.3870315,81.1376341 80.0214345,78.9300113 L81.9070863,76.3854582 L79.4640568,78.4018965 C74.8403941,82.2195835 69.2751918,85.0676312 62.5746538,86.2841813 C61.3955855,86.4985136 59.6711446,86.699986 57.6217095,87.0780682 C55.6468773,87.4415757 53.3581986,87.9739772 50.9683343,88.8630276 C46.2383411,90.6205525 41.1511973,93.7540907 37.3141232,99.7202447 L34.7272045,103.740261 L34.466609,98.9666523 C34.4492017,98.6391526 34.2512897,92.9953544 40.4584197,86.0921396 C42.5509872,83.7653481 46.4887323,82.0841255 50.2420283,80.7655532 C54.0261943,79.4366929 58.0461741,78.3504568 60.7713225,77.3345217 C65.2414919,75.666159 67.5893385,73.4568216 69.117411,71.5398335 C69.9363275,70.5136105 70.5365805,69.5542591 71.0819531,68.7749468 C71.6341858,67.9870613 72.3219042,67.069719 73.2934565,66.5501775 C76.1103578,65.0447074 78.2978511,66.9565516 78.9152541,69.2113274 C78.9727069,69.4230877 79.0190121,69.639992 79.0550273,69.8611829 L79.1913705,70.7082242 L79.7358856,70.0446514 C84.0105441,64.8389484 85.0438367,58.4261259 83.5740745,53.7708283 C83.2971006,52.8937805 82.8117533,52.1650507 82.0803022,51.1396849 C81.7064303,50.6149995 81.3068334,50.0620221 80.9020914,49.4387438 C80.4793418,48.7863163 80.0531622,48.0610157 79.6449902,47.2156891 C78.5713949,44.9943492 77.6710155,42.045994 77.272276,37.671043 L77.05447,35.2739505 L76.5099548,37.6187459 C74.0214776,48.3405051 71.2131513,52.8680606 67.3681024,55.3354541 L66.0038132,56.2125019 L65.1917567,54.8081966 C64.028981,52.7951876 61.8569228,51.4466088 59.3718756,51.4466088 C55.6623124,51.4466088 52.6559026,54.452405 52.6559026,58.1612112 C52.6559026,58.7587696 52.733078,59.3366095 52.8788537,59.8853002 L53.2064203,61.1232836 L48.2294659,63.5040868 L47.6720881,61.8468695 C47.246766,60.5814515 46.9663622,58.8633638 47.2013183,56.6677437 L47.3530966,55.2471492 L46.5050249,56.3968277 C42.4260489,61.9308877 43.3776213,68.954986 45.3533967,71.2629162 L47.1404355,73.3513702 L44.4272922,73.796324 C34.0908507,75.4921212 28.8469552,66.8459561 27.9258241,60.7469161 C26.6315073,52.1787679 29.6157077,44.9326214 34.6853583,41.421001 C36.7779259,39.9712573 38.9477545,37.3186807 40.6674792,34.0453978 L41.1484533,33.1297702 L40.1844471,33.5052804 C38.8254744,34.0342525 37.2558987,34.4903516 35.588739,34.6763921 L33.6034453,34.8984404 L33.8847924,32.9205819 C34.0831331,31.5274219 34.9774243,30.327161 35.8396448,29.2580715 C36.7099258,28.178694 37.8514354,26.8995588 39.0606878,25.191759 C40.1020409,23.7205821 41.2067636,21.9090455 42.2303664,19.5942566 L43.2523399,17.2811824 L41.585609,19.1827386 C39.608633,21.4366571 37.0786526,23.5474016 33.7896952,24.7716677 C30.3753707,26.0413723 25.5147795,28.9785821 23.318797,32.7191095 L22.7472704,33.6921782 L23.7960838,33.2746588 C24.1517766,33.1323422 24.4998375,33.0191747 24.8321204,32.9291552 C26.5471289,32.4661974 27.8920385,32.613658 27.9971685,32.6256606 L31.6951554,33.0586119 L28.7803271,35.3742581 C21.9919807,40.7677161 19.243594,48.4931097 19.4351604,53.8574185 L19.456598,54.462693 L19.1605018,54.8073393 C16.145517,58.3112438 14.3900344,62.6124644 14.5798858,68.0376437 C14.7685367,73.4096685 12.9985623,79.6604558 10.4086423,83.080342 L9.9038296,83.7473442 L10.7385242,83.7001911 C11.313052,83.6684699 11.913305,83.5835943 12.5195604,83.4764281 C12.982184,83.3941245 13.39653,83.3109636 13.7367877,83.2560945 C13.9317841,83.2243734 14.1284098,83.1977961 14.3119158,83.1832216 C14.5072552,83.168647 14.7591042,83.163503 15.0163555,83.2089414 C15.9037008,83.3658327 16.7766401,84.2248765 16.4182033,85.4517146 C16.2630808,85.9798294 15.8752317,86.4642204 15.5781065,86.8131534 C15.3610722,87.0677802 15.0702925,87.3515562 14.7741963,87.6310455 L13.7107195,88.6221181 C12.9242167,89.3559919 11.9537792,90.2819074 10.9161133,91.4101527 C8.85510194,93.6512112 6.55356064,96.6638661 4.89883476,100.517561 C1.92972642,107.432778 0.926875247,117.3255 7.7262834,130.759849 L8.13994343,131.576026 L8.43766889,130.710981 C13.1860985,116.909695 24.6589046,115.687144 24.8984055,115.663996 L27.2666606,115.43166 L27.0797247,115.99664 C27.0700349,116.025789 26.7019084,117.142032 26.4596634,118.062803 L26.159537,119.205623 L27.0776667,118.462319 C33.4748196,113.281478 40.5951059,112.286119 47.030675,111.746002 C50.7093681,111.436506 54.2697255,111.283044 57.4956564,110.573175 C60.5938191,109.891598 63.221212,108.718772 65.3358174,106.467426 C65.3358174,106.467426 66.3699675,105.488356 67.6785189,105.258591 C68.3825299,105.154855 68.6749388,105.508932 68.5703233,106.09363 C68.40311,107.386483 67.6665139,108.501868 67.6665139,108.501868 C67.2986445,108.954538 67.0096656,109.376344 66.8047221,109.808438 L66.2241918,111.033561 L67.3638149,110.299687 C72.7163562,106.851509 77.7884936,106.079913 82.758588,106.273669 C88.367523,106.491431 93.9232928,107.995186 99.8700846,107.995186 C105.817734,107.995186 111.374361,106.491431 116.984154,106.273669 C121.955106,106.079913 127.0281,106.851509 132.379784,110.299687 L133.519407,111.033561 L132.939735,109.809295 C132.733933,109.376344 132.445812,108.955395 132.077943,108.501868 C132.077943,108.501868 131.108106,107.136142 130.815697,106.031045 C130.669063,105.196006 131.108106,104.841929 131.897867,105.042544 C133.172976,105.383761 134.408639,106.467426 134.408639,106.467426 C136.522387,108.718772 139.150638,109.891598 142.2488,110.573175 C145.475589,111.283044 149.035089,111.436506 152.714639,111.746002 C159.150208,112.286119 166.270923,113.281478 172.667905,118.462319 L173.585434,119.205623 L173.285308,118.062803 C173.042634,117.142032 172.675622,116.025789 172.66619,115.99664 L172.478396,115.43166 L174.846823,115.663996 C175.086067,115.687144 186.559473,116.909695 191.307474,130.710981 L191.605885,131.576026 L192.019202,130.759849 C198.818353,117.3255 197.815931,107.432778 194.846394,100.517561 C193.19141,96.6630087 190.890727,93.6512112 188.829287,91.4101527 C187.791706,90.2819074 186.821869,89.3559919 186.035538,88.6221181 L184.970518,87.6310455 C184.676394,87.3524135 184.383985,87.0669229 184.167036,86.8131534 C183.87034,86.4650778 183.48189,85.9798294 183.32754,85.4517146 C182.968245,84.2248765 183.842042,83.3658327 184.728701,83.2089414 C184.985953,83.163503 185.238059,83.168647 185.432712,83.1832216 C185.617076,83.1977961 185.814302,83.2243734 186.008098,83.2560945 C186.349384,83.3109636 186.762701,83.3941245 187.225754,83.4764281 C187.832009,83.5835943 188.43312,83.6684699 189.00679,83.7001911 L189.841142,83.7464868 L189.336929,83.080342 C186.747266,79.6604558 184.97652,73.4096685 185.165171,68.0376437 C185.355537,62.6287537 183.610516,58.3412503 180.717297,54.9616586 L180.301407,54.0854681 L180.309982,53.8574185 C180.501206,48.4931097 177.752905,40.7677161 170.964901,35.3742581 L168.051102,33.0594692 L171.747803,32.6256606 C171.830981,32.61623 172.997186,32.4867733 174.537264,32.8357063 C174.979736,32.9368711 175.456508,33.0774731 175.949573,33.2729442 L176.997443,33.6896062 L176.426346,32.7182522 C174.22942,28.9777248 169.369086,26.0413723 165.955362,24.7716677 C162.666833,23.5474016 160.135481,21.4366571 158.159791,19.1818812 L156.491945,17.2811824 L157.514948,19.5933993 C158.53795,21.9090455 159.642416,23.7205821 160.684283,25.191759 L160.684283,25.191759" id="path88" fill="#960A2C"></path>
                        <path d="M9.78763778,98.5817115 C8.49632218,100.1712 7.06197489,103.088691 6.45906367,107.309323 C5.7516227,112.260399 6.59943711,116.75109 7.58994023,118.236841 C11.8395596,101.738398 21.9617966,94.8643321 21.9617966,94.8643321 C15.8745457,98.4248203 10.5935202,102.623161 7.96235431,111.227317 C7.51019234,103.690536 9.78763778,98.5817115 9.78763778,98.5817115 L9.78763778,98.5817115" id="path90" fill="#FFFFFF"></path>
                        <path d="M189.992062,98.5817115 C191.283464,100.1712 192.718068,103.088691 193.320894,107.309323 C194.027477,112.260399 193.180263,116.75109 192.189846,118.236841 C187.940055,101.738398 177.818932,94.8643321 177.818932,94.8643321 C183.90464,98.4248203 189.186008,102.623161 191.817689,111.227317 C192.269593,103.690536 189.992062,98.5817115 189.992062,98.5817115 L189.992062,98.5817115" id="path92" fill="#FFFFFF"></path>
                        <path d="M99.8752296,19.9569069 C105.65738,19.9569069 109.52987,23.2610536 113.65961,24.4998943 C117.791065,25.7387351 118.616842,22.847821 118.616842,22.847821 C118.616842,22.847821 121.913945,15.3264718 118.928973,13.827003 C105.017682,6.83976992 108.058392,4.06545259 103.546205,1.82782334 C102.010415,1.06480035 99.8735146,1.52175682 99.8735146,1.52175682 C99.8735146,1.52175682 97.7443316,1.06480035 96.2085416,1.82782334 C91.6963544,4.06545259 94.7370643,6.83976992 80.8257735,13.827003 C77.8416588,15.3264718 81.137905,22.847821 81.137905,22.847821 C81.137905,22.847821 81.9645391,25.7387351 86.0951369,24.4998943 C90.2248772,23.2610536 94.0930787,19.9569069 99.8752296,19.9569069 L99.8752296,19.9569069" id="path94" fill="#960A2C"></path>
                    </g>
                </g>
            </g>
        </g>
    </g>
</svg>